<svg width="1087" height="710" viewBox="0 0 1087 710" fill="none" xmlns="http://www.w3.org/2000/svg">
<path d="M217.971 267.86L218.259 267.452C207.424 259.798 195.679 256.61 184.203 253.495C183.038 253.179 181.875 252.863 180.716 252.544C168.125 249.072 155.982 245.144 145.602 234.945C144.503 233.865 143.411 232.797 142.328 231.738C124.9 214.7 109.953 200.088 106.87 174.232L106.374 174.291L106.87 174.231C105.693 164.369 102.446 154.714 99.2295 145.152C98.9186 144.227 98.6079 143.303 98.2994 142.38C94.7924 131.888 91.5655 121.487 91.2997 110.906C91.0351 100.318 93.9002 90.4626 97.2539 80.6452C97.8263 78.9696 98.4133 77.2944 99.0011 75.6168C101.849 67.4883 104.717 59.3031 106.044 50.7432C107.523 41.2047 108.697 31.6549 109.871 22.1131C112.129 3.75147 114.384 -14.5804 118.794 -32.7438L118.308 -32.8617L118.794 -32.7438C121.431 -43.6105 125.451 -52.8623 130.111 -62.7399C133.414 -69.7396 136.828 -73.7704 141.153 -76.9595C144.548 -79.4629 148.502 -81.4489 153.451 -83.9353C154.856 -84.641 156.341 -85.3869 157.916 -86.1965C174.433 -94.6843 189.567 -105.243 203.043 -118.066C208.597 -123.349 213.295 -129.599 217.951 -135.791C218.542 -136.577 219.132 -137.362 219.724 -138.145C224.986 -145.105 230.33 -151.836 236.965 -156.99C245.587 -163.688 254.905 -168.445 263.898 -169.253C272.855 -170.057 281.543 -166.95 288.979 -157.802C290.353 -156.111 291.517 -153.996 292.656 -151.711C293.03 -150.96 293.402 -150.188 293.779 -149.409C294.537 -147.837 295.311 -146.235 296.143 -144.71C298.634 -140.147 301.77 -136.041 307.073 -134.983C310.331 -134.333 313.833 -134.88 317.441 -136.029C321.05 -137.179 324.813 -138.947 328.6 -140.782C329.034 -140.993 329.469 -141.204 329.904 -141.415C333.273 -143.053 336.654 -144.696 339.996 -145.989C343.77 -147.448 347.455 -148.444 350.965 -148.479L350.96 -148.978L350.965 -148.479C353.476 -148.504 356.369 -148.179 359.47 -147.759C360.336 -147.641 361.218 -147.516 362.112 -147.389C364.406 -147.064 366.774 -146.728 369.129 -146.483C375.655 -145.802 382.256 -145.787 387.223 -148.683C393.657 -152.434 396.779 -159.813 399.273 -167.476C399.791 -169.064 400.279 -170.658 400.763 -172.24C401.46 -174.515 402.149 -176.766 402.906 -178.941C404.185 -182.613 405.63 -185.978 407.556 -188.686C415.448 -199.779 426.31 -203.074 438.186 -204.089C443.054 -204.505 448.071 -204.537 453.119 -204.569C454.241 -204.577 455.363 -204.584 456.487 -204.595C462.653 -204.657 468.816 -204.847 474.687 -205.877C484.565 -207.608 498.618 -210.46 507.555 -215.158C511.52 -217.243 514.687 -220.195 517.726 -223.172C518.047 -223.487 518.367 -223.801 518.686 -224.115C521.399 -226.788 524.063 -229.412 527.203 -231.472C534.087 -235.992 541.786 -238.078 549.007 -237.131C556.216 -236.185 562.996 -232.211 568.062 -224.517C571.367 -219.496 573.18 -214.812 574.92 -210.317C575.531 -208.739 576.133 -207.183 576.788 -205.645C579.303 -199.732 582.558 -194.194 590.007 -188.909C595.736 -184.845 601.802 -181.608 607.842 -178.385L608.246 -178.169C614.429 -174.87 620.579 -171.565 626.371 -167.365C631.232 -163.84 636.179 -159.867 641.237 -155.782L642.122 -155.067C646.895 -151.212 651.768 -147.276 656.749 -143.553C667.324 -135.649 678.431 -128.673 690.211 -125.428C695.532 -123.962 700.896 -123.554 706.189 -123.151C706.66 -123.115 707.131 -123.079 707.602 -123.043C713.37 -122.595 719.052 -122.041 724.626 -120.051C729.053 -118.47 733.371 -116.119 737.682 -113.734L738.275 -113.406C742.374 -111.137 746.471 -108.868 750.599 -107.289C759.602 -103.846 766.394 -104.135 772.537 -106.987C778.634 -109.818 784.044 -115.157 790.332 -121.664C791.58 -122.955 792.823 -124.292 794.072 -125.635C795.708 -127.394 797.352 -129.161 799.026 -130.848C801.961 -133.806 804.9 -136.423 807.836 -138.106C810.767 -139.786 813.643 -140.507 816.484 -139.762C819.332 -139.015 822.256 -136.766 825.214 -132.261C837.722 -113.214 835.345 -88.0274 831.458 -66.7976C829.997 -58.8149 829.393 -50.5316 828.789 -42.2556C828.556 -39.0616 828.323 -35.8686 828.041 -32.6945C827.026 -21.2695 825.373 -10.048 820.82 0.312516C818.542 5.49544 815.948 10.5472 813.325 15.598C813.101 16.0291 812.877 16.4603 812.653 16.8915C810.253 21.5078 807.848 26.1326 805.669 30.8469C800.903 41.16 797.199 51.9389 796.942 64.1289C796.579 81.3857 805.947 97.7299 817.604 112.832C823.225 120.115 829.398 127.131 835.296 133.836L835.962 134.594C842.066 141.534 847.837 148.131 852.386 154.367C863.706 169.883 868.235 182.23 868.318 194.99C868.402 207.781 864.023 221.047 857.38 238.43C851.929 252.699 858.841 263.736 865.685 274.666L865.751 274.771C872.653 285.793 879.461 296.734 874.483 311.114C873.25 314.677 871.954 317.936 870.703 321.082C867.11 330.116 863.886 338.222 863.585 349.932C863.401 357.097 864.304 364.188 865.201 371.228C865.243 371.56 865.285 371.892 865.327 372.224C866.265 379.605 867.139 386.934 866.725 394.322C865.337 419.147 849.063 444.983 828.892 458.412C824.891 461.076 820.933 464.585 816.927 468.278C816.165 468.979 815.402 469.688 814.637 470.398C811.365 473.436 808.046 476.516 804.61 479.315C796.126 486.227 787.054 491.314 776.517 489.711C768.469 488.487 761.962 483.683 755.679 479.046C755.231 478.715 754.784 478.385 754.338 478.057L754.042 478.46L754.337 478.057C753.595 477.513 752.689 476.706 751.536 475.679C750.886 475.101 750.158 474.452 749.336 473.741C747.08 471.789 744.175 469.419 740.403 466.889C732.859 461.827 721.867 456.133 705.68 451.827C695.624 449.153 689.654 443.637 684.801 436.779C682.398 433.383 680.273 429.663 678.057 425.785L677.973 425.638C675.731 421.714 673.394 417.636 670.599 413.619C661.243 400.177 648.122 393.058 635.238 386.067C633.292 385.011 631.351 383.958 629.43 382.887C614.764 374.709 601.138 365.435 594.227 345.626C591.227 337.026 589.434 328.154 587.861 319.331C587.543 317.545 587.234 315.76 586.925 313.98C585.712 306.98 584.511 300.051 582.825 293.394C578.588 276.665 571.265 261.553 552.885 250.926C544.807 246.254 536.16 243.245 527.581 240.259C526.065 239.731 524.551 239.205 523.042 238.669C512.979 235.098 503.142 231.151 494.412 224.153C490.885 221.326 487.542 217.555 484.188 213.416C482.785 211.684 481.374 209.88 479.948 208.056C477.985 205.547 475.995 203.001 473.959 200.561C466.916 192.117 459.075 184.599 448.95 183.083C438.881 181.576 430.641 186.439 422.34 191.338L421.792 191.661C413.258 196.694 404.575 201.651 393.483 200.275C380.879 198.712 371.253 198.812 362.966 202.23C354.668 205.652 347.79 212.369 340.6 223.86C327.1 245.431 312.416 251.321 292.345 259.374C290.706 260.031 289.032 260.703 287.319 261.399C282.799 263.236 278.559 265.161 274.522 266.995C272.61 267.863 270.744 268.711 268.915 269.518C263.211 272.038 257.854 274.176 252.518 275.401C241.894 277.84 231.307 276.668 218.259 267.452L217.971 267.86Z" stroke="#C5C1B6"/>
</svg>
