<svg width="1461" height="1065" viewBox="0 0 1461 1065" fill="none" xmlns="http://www.w3.org/2000/svg">
<path d="M519.524 677.794L519.822 678.195L519.523 677.794C513.089 682.585 508.299 688.692 503.715 694.852C503.231 695.502 502.749 696.153 502.268 696.803C498.181 702.325 494.142 707.783 489.089 712.366C478.022 722.405 464.789 728.332 451.533 728.668C438.29 729.005 424.976 723.764 413.713 711.382C406.382 703.321 401.806 695.425 397.439 687.888C395.911 685.251 394.409 682.658 392.823 680.118C386.706 670.321 379.402 661.42 364.724 654.125L364.502 654.573L364.724 654.125C353.393 648.496 341.691 644.431 330.01 640.373L329.238 640.105C317.291 635.955 305.374 631.775 293.841 625.896C284.173 620.966 274.232 615.262 264.068 609.395L262.288 608.368C252.696 602.83 242.912 597.181 232.995 591.942C211.936 580.818 190.23 571.519 168.391 569.042C158.532 567.923 148.892 568.695 139.334 569.46C138.485 569.528 137.636 569.596 136.788 569.662C126.378 570.479 116.041 571.09 105.487 569.091C97.1131 567.506 88.7244 564.511 80.3733 561.467L79.2326 561.051C71.2797 558.151 63.3619 555.263 55.5888 553.61C38.655 550.01 26.7405 552.422 16.6921 559.158C6.686 565.865 -1.42518 576.836 -10.8221 590.211C-12.6739 592.848 -14.515 595.577 -16.3657 598.321C-18.7967 601.925 -21.2446 605.554 -23.7556 609.029C-28.1648 615.132 -32.6994 620.659 -37.5063 624.518C-42.309 628.373 -47.3378 630.528 -52.7556 629.98C-58.1805 629.432 -64.1091 626.164 -70.6816 618.92C-98.4414 588.331 -101.244 542.597 -100.262 503.656C-99.8929 489.036 -101.133 474.13 -102.375 459.212C-102.855 453.446 -103.335 447.678 -103.723 441.925C-105.114 421.257 -105.314 400.73 -100.08 380.914C-97.467 371.02 -94.2538 361.274 -90.9909 351.533C-90.7121 350.7 -90.433 349.868 -90.1539 349.036C-87.1671 340.131 -84.1784 331.22 -81.6171 322.214C-76.0145 302.514 -72.4445 282.316 -75.3918 260.585C-79.5593 229.857 -100.752 203.419 -125.758 179.766C-137.813 168.363 -150.776 157.589 -163.175 147.283L-164.572 146.122C-177.398 135.459 -189.551 125.299 -199.425 115.44C-223.997 90.9047 -235.587 70.085 -239.329 47.2453C-243.076 24.3753 -238.965 -0.577564 -231.992 -33.4283C-226.311 -60.2034 -241.607 -77.8087 -256.907 -95.4189L-257.011 -95.5391C-272.39 -113.241 -287.742 -130.984 -282.856 -158.233C-281.65 -164.967 -280.247 -171.161 -278.895 -177.131C-275.024 -194.227 -271.568 -209.493 -274.301 -230.383C-275.977 -243.179 -279.566 -255.543 -283.138 -267.851L-283.641 -269.585C-287.38 -282.48 -291.003 -295.338 -292.34 -308.67C-296.832 -353.465 -274.993 -404.216 -242.704 -433.89C-236.342 -439.737 -230.284 -447.082 -224.175 -454.788C-223.015 -456.251 -221.854 -457.727 -220.688 -459.208C-215.704 -465.541 -210.64 -471.976 -205.288 -477.94C-192.078 -492.663 -177.226 -504.387 -157.809 -504.482C-143.012 -504.554 -129.976 -497.766 -117.493 -491.266C-116.595 -490.798 -115.7 -490.332 -114.807 -489.87L-114.577 -490.314L-114.807 -489.87C-113.315 -489.099 -111.446 -487.897 -109.087 -486.38C-107.769 -485.531 -106.297 -484.584 -104.652 -483.559C-100.09 -480.716 -94.2606 -477.313 -86.8462 -473.866C-72.0155 -466.972 -50.8624 -459.91 -20.8352 -456.772C-2.03727 -454.809 10.236 -446.586 20.8575 -435.668C26.1075 -430.272 30.9488 -424.223 35.9805 -417.936L36.1803 -417.687C41.279 -411.316 46.5771 -404.713 52.6737 -398.348C73.0524 -377.074 98.346 -368.088 123.282 -359.229C127.05 -357.89 130.81 -356.554 134.544 -355.18C163.01 -344.698 190.027 -331.933 207.971 -298.412C215.746 -283.887 221.439 -268.544 226.715 -253.249C227.785 -250.149 228.837 -247.051 229.887 -243.961C234.011 -231.819 238.087 -219.819 242.952 -208.436C255.17 -179.849 272.399 -155.061 308.013 -141.315C323.689 -135.262 339.908 -132.326 356.043 -129.405C358.897 -128.888 361.748 -128.372 364.592 -127.839C383.543 -124.29 402.248 -119.998 419.838 -109.93C426.958 -105.854 434.003 -100.042 441.147 -93.5968C444.146 -90.891 447.171 -88.0658 450.225 -85.2136C454.42 -81.2949 458.671 -77.3252 462.984 -73.5443C477.905 -60.4642 493.892 -49.3513 512.208 -49.4843C530.441 -49.6173 543.671 -60.5132 557.134 -71.6016L557.979 -72.2974C571.779 -83.6559 585.97 -95.0212 606.289 -95.6817C629.185 -96.4249 646.234 -99.2978 659.961 -107.658C673.699 -116.025 684.037 -129.842 693.623 -152.309C711.706 -194.679 736.343 -209.358 769.878 -229.339C772.618 -230.972 775.418 -232.64 778.278 -234.362C785.818 -238.9 792.827 -243.514 799.509 -247.912C802.676 -249.997 805.769 -252.034 808.811 -253.99C818.281 -260.084 827.261 -265.415 836.469 -269.109C854.841 -276.479 874.166 -277.348 900.114 -264.52C921.513 -253.941 943.278 -251.554 964.622 -249.213C966.788 -248.976 968.949 -248.739 971.105 -248.494C994.535 -245.831 1017.38 -242.221 1038.84 -226.877C1041.11 -225.254 1043.36 -223.651 1045.59 -222.062C1081.43 -196.578 1112.29 -174.631 1125.07 -129.248L1125.55 -129.384L1125.07 -129.248C1129.92 -112.034 1138.39 -95.764 1146.81 -79.6063C1147.62 -78.0464 1148.44 -76.4876 1149.24 -74.929C1158.44 -57.2044 1167.13 -39.5127 1170.58 -20.6527C1174.03 -1.77276 1171.67 16.6652 1168.44 35.1171C1167.89 38.2722 1167.31 41.4285 1166.73 44.5876C1163.93 59.8793 1161.12 75.2351 1161.15 90.8302C1161.19 108.226 1161.77 125.571 1162.35 142.909C1163.47 176.299 1164.58 209.663 1161.81 243.308L1162.28 243.347L1161.81 243.308C1160.15 263.466 1155.56 281.122 1150.02 300.047C1146.07 313.508 1141.08 321.714 1134.21 328.667C1128.83 334.109 1122.3 338.784 1114.16 344.609C1111.86 346.258 1109.43 348 1106.86 349.877C1079.81 369.618 1055.81 392.659 1035.4 419.269C1027 430.217 1020.39 442.646 1013.82 454.997C1012.98 456.564 1012.15 458.129 1011.32 459.691C1003.88 473.576 996.217 487.119 985.79 498.212C972.266 512.599 956.919 523.753 941.003 527.739C925.122 531.716 908.624 528.572 892.705 514.257C889.746 511.595 887.057 508.119 884.383 504.359C883.499 503.116 882.616 501.84 881.725 500.554C879.935 497.968 878.117 495.342 876.212 492.865C870.505 485.442 863.861 479.132 854.299 478.738C848.403 478.496 842.384 480.42 836.3 483.467C830.216 486.513 824.024 490.705 817.784 495.039C817.068 495.535 816.352 496.034 815.636 496.533C810.09 500.395 804.506 504.284 798.893 507.534C792.555 511.204 786.213 514.038 779.896 515.095L779.965 515.509L779.896 515.095C775.394 515.849 770.119 516.081 764.471 516.199C762.889 516.233 761.277 516.257 759.646 516.281C755.468 516.344 751.162 516.409 746.902 516.63C735.076 517.244 723.423 519.067 715.487 525.533C705.195 533.917 701.709 547.802 699.407 562.172C698.932 565.132 698.509 568.106 698.089 571.062C697.483 575.324 696.882 579.548 696.14 583.642C694.886 590.56 693.245 597.011 690.543 602.43C679.503 624.573 660.923 633.538 639.975 638.689C631.395 640.8 622.438 642.265 613.444 643.737C611.448 644.063 609.45 644.39 607.455 644.725C596.478 646.563 585.57 648.625 575.423 652.094C558.285 657.951 534.085 666.957 519.524 677.794Z" stroke="#A4A097"/>
<path d="M593.524 658.794L593.822 659.195L593.523 658.794C587.089 663.585 582.299 669.692 577.715 675.852C577.231 676.502 576.749 677.153 576.268 677.803C572.181 683.325 568.142 688.783 563.089 693.366C552.022 703.405 538.789 709.332 525.533 709.668C512.29 710.005 498.976 704.764 487.713 692.382C480.382 684.321 475.806 676.425 471.439 668.888C469.911 666.251 468.409 663.658 466.823 661.118C460.706 651.321 453.402 642.42 438.724 635.125L438.502 635.573L438.724 635.125C427.393 629.496 415.691 625.431 404.01 621.373L403.238 621.105C391.291 616.955 379.374 612.775 367.841 606.896C358.173 601.966 348.232 596.262 338.068 590.395L336.288 589.368C326.696 583.83 316.912 578.181 306.995 572.942C285.936 561.818 264.23 552.519 242.391 550.042C232.532 548.923 222.892 549.695 213.334 550.46C212.485 550.528 211.636 550.596 210.788 550.662C200.378 551.479 190.041 552.09 179.487 550.091C171.113 548.506 162.724 545.511 154.373 542.467L153.233 542.051C145.28 539.151 137.362 536.263 129.589 534.61C112.655 531.01 100.74 533.422 90.6921 540.158C80.686 546.865 72.5748 557.836 63.1779 571.211C61.3261 573.848 59.485 576.577 57.6343 579.321C55.2033 582.925 52.7554 586.554 50.2444 590.029C45.8352 596.132 41.3006 601.659 36.4937 605.518C31.691 609.373 26.6622 611.528 21.2444 610.98C15.8195 610.432 9.89094 607.164 3.31843 599.92C-24.4414 569.331 -27.2442 523.597 -26.2619 484.656C-25.8929 470.036 -27.1335 455.13 -28.3752 440.212C-28.8551 434.446 -29.3351 428.678 -29.7225 422.925C-31.1138 402.257 -31.3145 381.73 -26.0803 361.914C-23.467 352.02 -20.2538 342.274 -16.9909 332.533C-16.7121 331.7 -16.433 330.868 -16.1539 330.036C-13.1671 321.131 -10.1784 312.22 -7.6171 303.214C-2.01448 283.514 1.55545 263.316 -1.39177 241.585C-5.55925 210.857 -26.7521 184.419 -51.7576 160.766C-63.813 149.363 -76.7759 138.589 -89.1746 128.283L-90.572 127.122C-103.398 116.459 -115.551 106.299 -125.425 96.4398C-149.997 71.9047 -161.587 51.085 -165.329 28.2453C-169.076 5.37532 -164.965 -19.5776 -157.992 -52.4283C-152.311 -79.2034 -167.607 -96.8087 -182.907 -114.419L-183.011 -114.539C-198.39 -132.241 -213.742 -149.984 -208.856 -177.233C-207.65 -183.967 -206.247 -190.161 -204.895 -196.131C-201.024 -213.227 -197.568 -228.493 -200.301 -249.383C-201.977 -262.179 -205.566 -274.543 -209.138 -286.851L-209.641 -288.585C-213.38 -301.48 -217.003 -314.338 -218.34 -327.67C-222.832 -372.465 -200.993 -423.216 -168.704 -452.89C-162.342 -458.737 -156.284 -466.082 -150.175 -473.788C-149.015 -475.251 -147.854 -476.727 -146.688 -478.208C-141.704 -484.541 -136.64 -490.976 -131.288 -496.94C-118.078 -511.663 -103.226 -523.387 -83.8089 -523.482C-69.0116 -523.554 -55.9764 -516.766 -43.4925 -510.266C-42.5946 -509.798 -41.6995 -509.332 -40.8069 -508.87L-40.5771 -509.314L-40.8066 -508.87C-39.3147 -508.099 -37.446 -506.897 -35.0874 -505.38C-33.7687 -504.531 -32.2968 -503.584 -30.6519 -502.559C-26.09 -499.716 -20.2606 -496.313 -12.8462 -492.866C1.98445 -485.972 23.1376 -478.91 53.1648 -475.772C71.9627 -473.809 84.236 -465.586 94.8575 -454.668C100.107 -449.272 104.949 -443.223 109.981 -436.936L110.18 -436.687C115.279 -430.316 120.577 -423.713 126.674 -417.348C147.052 -396.074 172.346 -387.088 197.282 -378.229C201.05 -376.89 204.81 -375.554 208.544 -374.18C237.01 -363.698 264.027 -350.933 281.971 -317.412C289.746 -302.887 295.439 -287.544 300.715 -272.249C301.785 -269.149 302.837 -266.051 303.887 -262.961C308.011 -250.819 312.087 -238.819 316.952 -227.436C329.17 -198.849 346.399 -174.061 382.013 -160.315C397.689 -154.262 413.908 -151.326 430.043 -148.405C432.897 -147.888 435.748 -147.372 438.592 -146.839C457.543 -143.29 476.248 -138.998 493.838 -128.93C500.958 -124.854 508.003 -119.042 515.147 -112.597C518.146 -109.891 521.171 -107.066 524.225 -104.214C528.42 -100.295 532.671 -96.3252 536.984 -92.5443C551.905 -79.4642 567.892 -68.3513 586.208 -68.4843C604.441 -68.6173 617.671 -79.5132 631.134 -90.6016L631.979 -91.2974C645.779 -102.656 659.97 -114.021 680.289 -114.682C703.185 -115.425 720.234 -118.298 733.961 -126.658C747.699 -135.025 758.037 -148.842 767.623 -171.309C785.706 -213.679 810.343 -228.358 843.878 -248.339C846.618 -249.972 849.418 -251.64 852.278 -253.362C859.818 -257.9 866.827 -262.514 873.509 -266.912C876.676 -268.997 879.769 -271.034 882.811 -272.99C892.281 -279.084 901.261 -284.415 910.469 -288.109C928.841 -295.479 948.166 -296.348 974.114 -283.52C995.513 -272.941 1017.28 -270.554 1038.62 -268.213C1040.79 -267.976 1042.95 -267.739 1045.1 -267.494C1068.53 -264.831 1091.38 -261.221 1112.84 -245.877C1115.11 -244.254 1117.36 -242.651 1119.59 -241.062C1155.43 -215.578 1186.29 -193.631 1199.07 -148.248L1199.55 -148.384L1199.07 -148.248C1203.92 -131.034 1212.39 -114.764 1220.81 -98.6063C1221.62 -97.0464 1222.44 -95.4876 1223.24 -93.929C1232.44 -76.2044 1241.13 -58.5127 1244.58 -39.6527C1248.03 -20.7728 1245.67 -2.33483 1242.44 16.1171C1241.89 19.2722 1241.31 22.4285 1240.73 25.5876C1237.93 40.8793 1235.12 56.2351 1235.15 71.8302C1235.19 89.2259 1235.77 106.571 1236.35 123.909C1237.47 157.299 1238.58 190.663 1235.81 224.308L1236.28 224.347L1235.81 224.308C1234.15 244.466 1229.56 262.122 1224.02 281.047C1220.07 294.508 1215.08 302.714 1208.21 309.667C1202.83 315.109 1196.3 319.784 1188.16 325.609C1185.86 327.258 1183.43 329 1180.86 330.877C1153.81 350.618 1129.81 373.659 1109.4 400.269C1101 411.217 1094.39 423.646 1087.82 435.997C1086.98 437.564 1086.15 439.129 1085.32 440.691C1077.88 454.576 1070.22 468.119 1059.79 479.212C1046.27 493.599 1030.92 504.753 1015 508.739C999.122 512.716 982.624 509.572 966.705 495.257C963.746 492.595 961.057 489.119 958.383 485.359C957.499 484.116 956.616 482.84 955.725 481.554C953.935 478.968 952.117 476.342 950.212 473.865C944.505 466.442 937.861 460.132 928.299 459.738C922.403 459.496 916.384 461.42 910.3 464.467C904.216 467.513 898.024 471.705 891.784 476.039C891.068 476.535 890.352 477.034 889.636 477.533C884.09 481.395 878.506 485.284 872.893 488.534C866.555 492.204 860.213 495.038 853.896 496.095L853.965 496.509L853.896 496.095C849.394 496.849 844.119 497.081 838.471 497.199C836.889 497.233 835.277 497.257 833.646 497.281C829.468 497.344 825.162 497.409 820.902 497.63C809.076 498.244 797.423 500.067 789.487 506.533C779.195 514.917 775.709 528.802 773.407 543.172C772.932 546.132 772.509 549.106 772.089 552.062C771.483 556.324 770.882 560.548 770.14 564.642C768.886 571.56 767.245 578.011 764.543 583.43C753.503 605.573 734.923 614.538 713.975 619.689C705.395 621.8 696.438 623.265 687.444 624.737C685.448 625.063 683.45 625.39 681.455 625.725C670.478 627.563 659.57 629.625 649.423 633.094C632.285 638.951 608.085 647.957 593.524 658.794Z" stroke="#A4A097"/>
<path d="M545.523 580.795L545.822 581.196L545.523 580.795C539.089 585.586 534.298 591.693 529.714 597.853C529.23 598.503 528.748 599.154 528.267 599.804C524.181 605.326 520.142 610.784 515.088 615.367C504.021 625.406 490.789 631.333 477.533 631.669C464.289 632.006 450.975 626.765 439.713 614.383C432.381 606.322 427.806 598.426 423.438 590.889C421.911 588.252 420.408 585.659 418.822 583.119C412.706 573.322 405.402 564.421 390.724 557.126L390.501 557.574L390.724 557.126C379.393 551.497 367.69 547.432 356.009 543.374L355.237 543.106C343.29 538.956 331.374 534.776 319.841 528.897C310.173 523.967 300.231 518.263 290.067 512.396L288.287 511.369C278.696 505.831 268.911 500.182 258.994 494.943C237.935 483.819 216.229 474.52 194.39 472.043C184.532 470.924 174.892 471.696 165.334 472.461C164.484 472.529 163.636 472.597 162.788 472.663C152.378 473.48 142.041 474.091 131.486 472.092C123.113 470.507 114.724 467.512 106.373 464.468L105.232 464.052C97.2792 461.152 89.3614 458.264 81.5884 456.611C64.6545 453.011 52.74 455.423 42.6916 462.159C32.6855 468.866 24.5743 479.837 15.1774 493.212C13.3256 495.849 11.4846 498.578 9.63378 501.322C7.20277 504.926 4.75492 508.555 2.24388 512.03C-2.16533 518.133 -6.69988 523.66 -11.5068 527.518C-16.3095 531.374 -21.3383 533.529 -26.756 532.981C-32.1809 532.433 -38.1095 529.165 -44.6821 521.921C-72.4418 491.332 -75.2447 445.598 -74.2624 406.657C-73.8934 392.037 -75.134 377.131 -76.3757 362.213C-76.8556 356.447 -77.3356 350.679 -77.723 344.926C-79.1143 324.258 -79.3149 303.731 -74.0808 283.915C-71.4675 274.021 -68.2543 264.275 -64.9914 254.534C-64.7126 253.701 -64.4335 252.869 -64.1543 252.037C-61.1676 243.132 -58.1789 234.221 -55.6176 225.215C-50.015 205.515 -46.445 185.317 -49.3923 163.586C-53.5597 132.858 -74.7526 106.42 -99.7581 82.7674C-111.814 71.3643 -124.776 60.5899 -137.175 50.2843L-138.573 49.1228C-151.398 38.4601 -163.552 28.3004 -173.425 18.4408C-197.997 -6.09431 -209.588 -26.914 -213.33 -49.7537C-217.076 -72.6237 -212.966 -97.5766 -205.993 -130.427C-200.312 -157.202 -215.607 -174.808 -230.907 -192.418L-231.011 -192.538C-246.391 -210.24 -261.743 -227.983 -256.857 -255.232C-255.65 -261.966 -254.248 -268.16 -252.896 -274.13C-249.025 -291.226 -245.568 -306.492 -248.302 -327.382C-249.977 -340.178 -253.566 -352.542 -257.139 -364.85L-257.642 -366.584C-261.38 -379.479 -265.003 -392.337 -266.34 -405.669C-270.833 -450.464 -248.993 -501.215 -216.705 -530.889C-210.343 -536.736 -204.284 -544.081 -198.175 -551.787C-197.016 -553.25 -195.854 -554.726 -194.688 -556.207C-189.704 -562.54 -184.64 -568.975 -179.289 -574.939C-166.078 -589.662 -151.226 -601.386 -131.809 -601.481C-117.012 -601.553 -103.977 -594.765 -91.493 -588.265C-90.5951 -587.797 -89.7 -587.331 -88.8074 -586.869L-88.5776 -587.313L-88.8071 -586.869C-87.3152 -586.098 -85.4465 -584.896 -83.0879 -583.379C-81.7692 -582.53 -80.2972 -581.583 -78.6524 -580.558C-74.0904 -577.715 -68.2611 -574.312 -60.8467 -570.865C-46.016 -563.971 -24.8629 -556.909 5.16429 -553.771C23.9622 -551.808 36.2355 -543.585 46.857 -532.668C52.107 -527.271 56.9483 -521.222 61.98 -514.935L62.1798 -514.686C67.2785 -508.315 72.5766 -501.712 78.6732 -495.347C99.0519 -474.073 124.346 -465.087 149.282 -456.228C153.05 -454.889 156.81 -453.553 160.544 -452.179C189.01 -441.697 216.027 -428.932 233.97 -395.411C241.745 -380.886 247.438 -365.543 252.715 -350.248C253.784 -347.148 254.837 -344.05 255.886 -340.96C260.011 -328.818 264.087 -316.818 268.952 -305.435C281.169 -276.848 298.398 -252.061 334.013 -238.314C349.689 -232.261 365.908 -229.325 382.043 -226.404C384.896 -225.887 387.747 -225.371 390.592 -224.838C409.542 -221.289 428.248 -216.997 445.837 -206.929C452.957 -202.853 460.002 -197.041 467.147 -190.596C470.146 -187.89 473.171 -185.065 476.224 -182.213C480.42 -178.294 484.67 -174.324 488.983 -170.543C503.905 -157.463 519.892 -146.35 538.207 -146.483C556.441 -146.616 569.67 -157.512 583.134 -168.601L583.979 -169.296C597.778 -180.655 611.969 -192.02 632.288 -192.681C655.185 -193.424 672.234 -196.297 685.961 -204.657C699.698 -213.024 710.037 -226.841 719.622 -249.308C737.706 -291.678 762.342 -306.357 795.877 -326.338C798.618 -327.971 801.417 -329.639 804.278 -331.361C811.817 -335.899 818.827 -340.513 825.508 -344.911C828.675 -346.996 831.769 -349.033 834.81 -350.989C844.281 -357.083 853.26 -362.414 862.468 -366.108C880.84 -373.478 900.165 -374.347 926.113 -361.519C947.512 -350.94 969.277 -348.553 990.622 -346.212C992.787 -345.975 994.948 -345.738 997.104 -345.493C1020.53 -342.83 1043.38 -339.22 1064.84 -323.876C1067.11 -322.253 1069.36 -320.651 1071.59 -319.061C1107.43 -293.577 1138.28 -271.63 1151.07 -226.247L1151.55 -226.383L1151.07 -226.247C1155.92 -209.033 1164.39 -192.763 1172.81 -176.605C1173.62 -175.045 1174.44 -173.487 1175.24 -171.928C1184.44 -154.203 1193.13 -136.512 1196.58 -117.652C1200.03 -98.7718 1197.67 -80.3339 1194.44 -61.8819C1193.89 -58.7268 1193.31 -55.5705 1192.73 -52.4114C1189.93 -37.1198 1187.12 -21.7639 1187.15 -6.16878C1187.19 11.2269 1187.77 28.572 1188.35 45.9097C1189.47 79.3002 1190.58 112.664 1187.81 146.309L1188.28 146.348L1187.81 146.309C1186.15 166.467 1181.56 184.123 1176.02 203.048C1172.07 216.509 1167.08 224.715 1160.21 231.668C1154.83 237.11 1148.3 241.785 1140.16 247.61C1137.86 249.259 1135.43 251.001 1132.86 252.878C1105.81 272.619 1081.81 295.66 1061.4 322.27C1053 333.218 1046.39 345.647 1039.82 357.997C1038.98 359.565 1038.15 361.13 1037.32 362.692C1029.88 376.577 1022.22 390.12 1011.79 401.213C998.265 415.6 982.918 426.754 967.002 430.74C951.122 434.717 934.623 431.573 918.704 417.258C915.746 414.596 913.056 411.12 910.382 407.36C909.499 406.117 908.615 404.841 907.725 403.555C905.934 400.969 904.116 398.343 902.212 395.866C896.504 388.443 889.861 382.133 880.299 381.739C874.403 381.497 868.383 383.421 862.3 386.468C856.216 389.514 850.024 393.706 843.783 398.04C843.068 398.536 842.352 399.035 841.635 399.534C836.089 403.396 830.506 407.285 824.892 410.535C818.554 414.205 812.213 417.039 805.895 418.096L805.965 418.51L805.895 418.096C801.393 418.85 796.119 419.082 790.47 419.2C788.888 419.234 787.277 419.258 785.646 419.282C781.467 419.345 777.161 419.41 772.902 419.631C761.075 420.245 749.422 422.068 741.486 428.534C731.195 436.918 727.709 450.803 725.406 465.173C724.932 468.133 724.509 471.107 724.088 474.063C723.482 478.325 722.881 482.549 722.139 486.643C720.886 493.561 719.245 500.012 716.543 505.431C705.502 527.574 686.922 536.539 665.974 541.69C657.394 543.801 648.437 545.266 639.444 546.738C637.448 547.064 635.45 547.391 633.454 547.726C622.478 549.564 611.569 551.626 601.422 555.095C584.284 560.952 560.084 569.958 545.523 580.795Z" stroke="#A4A097"/>
</svg>
