<svg width="797" height="114" viewBox="0 0 797 114" fill="none" xmlns="http://www.w3.org/2000/svg">
<path d="M15.3 2.54999V97.35H63V111H0.600001V2.54999H15.3ZM156.496 56.7C156.496 89.7 134.896 112.8 104.146 112.8C73.5457 112.8 52.2457 89.7 52.2457 56.7C52.2457 23.85 73.6957 0.599991 104.296 0.599991C135.046 0.599991 156.496 23.7 156.496 56.7ZM141.046 56.7C141.046 31.5 126.346 14.85 104.296 14.85C82.2457 14.85 67.6957 31.5 67.6957 56.7C67.6957 81.9 82.2457 98.7 104.296 98.7C126.346 98.7 141.046 81.75 141.046 56.7ZM174.997 2.54999V111H160.297V2.54999H174.997ZM199.988 111H185.288V2.54999H226.238C249.488 2.54999 263.288 14.85 263.288 35.1C263.288 50.1 255.788 60.9 242.288 65.25L264.338 111H247.988L227.738 68.1H199.988V111ZM199.988 15.75V55.05H226.388C240.038 55.05 247.838 47.7 247.838 35.25C247.838 22.65 239.738 15.75 226.238 15.75H199.988ZM283.132 2.54999V111H268.432V2.54999H283.132ZM359.572 111H293.422V2.54999H359.572V16.05H308.122V49.95H354.472V63H308.122V97.35H359.572V111ZM380.573 111H365.873V2.54999H380.573L436.073 86.4V2.54999H450.773V111H436.073L380.573 27.15V111ZM575.395 96.6C574.995 98.2 574.795 99.75 574.795 101.25C574.795 106.75 578.095 109.8 584.695 110.4C585.295 110.4 585.595 110.6 585.595 111C585.695 111.3 585.545 111.45 585.145 111.45C581.245 111.15 578.695 111 577.495 111H553.495C551.595 111 548.545 111.15 544.345 111.45C543.845 111.45 543.595 111.3 543.595 111C543.695 110.6 544.045 110.4 544.645 110.4C548.645 110.1 551.995 108.95 554.695 106.95C557.395 104.95 559.345 101.45 560.545 96.45L579.145 18.6C579.145 18.4 579.095 18.25 578.995 18.15C578.995 17.95 578.895 17.85 578.695 17.85C578.495 17.85 578.195 18.15 577.795 18.75L519.445 105.45C519.045 105.95 518.695 106.35 518.395 106.65C518.095 106.95 517.695 107.1 517.195 107.1C516.595 107.1 516.295 106.65 516.295 105.75L514.495 20.25C514.495 19.55 514.345 19.2 514.045 19.2C513.745 19.2 513.445 19.45 513.145 19.95L482.095 96.9C481.295 99 480.895 100.75 480.895 102.15C480.895 104.85 482.045 106.85 484.345 108.15C486.645 109.45 489.445 110.2 492.745 110.4C493.345 110.4 493.695 110.6 493.795 111C493.895 111.3 493.695 111.45 493.195 111.45C488.695 111.15 485.595 111 483.895 111H473.395C471.895 111 469.345 111.15 465.745 111.45C465.345 111.45 465.195 111.3 465.295 111C465.295 110.6 465.545 110.4 466.045 110.4C469.245 110.2 471.995 109.1 474.295 107.1C476.595 105.1 478.695 101.7 480.595 96.9L514.195 15.6L514.045 14.55C513.845 12.15 513.145 10.25 511.945 8.84999C510.745 7.44999 508.795 6.69999 506.095 6.59999C505.595 6.5 505.345 6.29999 505.345 5.99999C505.445 5.7 505.745 5.55 506.245 5.55L509.545 5.7C511.545 5.89999 512.995 5.99999 513.895 5.99999H526.945C528.045 5.99999 528.595 6.44999 528.595 7.34999L529.045 86.4C529.045 86.9 529.145 87.15 529.345 87.15C529.745 87.15 530.095 86.9 530.395 86.4L583.945 7.05C584.445 6.34999 584.995 5.99999 585.595 5.99999H599.245C600.945 5.99999 603.595 5.84999 607.195 5.55C607.695 5.55 607.895 5.7 607.795 5.99999C607.695 6.29999 607.395 6.5 606.895 6.59999C603.595 6.8 600.795 7.95 598.495 10.05C596.195 12.05 594.495 15.55 593.395 20.55L575.395 96.6ZM649.334 95.25C648.434 98.05 647.984 100.3 647.984 102C647.984 104.2 648.734 105.3 650.234 105.3C651.534 105.3 652.584 105 653.384 104.4C654.284 103.7 655.234 102.35 656.234 100.35C657.234 98.25 658.534 94.95 660.134 90.45C660.234 90.05 660.484 89.85 660.884 89.85C661.084 89.85 661.234 89.95 661.334 90.15C661.434 90.35 661.434 90.65 661.334 91.05C659.334 97.55 656.634 102.8 653.234 106.8C649.834 110.8 645.784 112.8 641.084 112.8C636.284 112.8 633.884 110.35 633.884 105.45C633.884 102.95 634.384 100.25 635.384 97.35L635.534 96.75C635.634 95.95 635.634 95.35 635.534 94.95C635.534 94.55 635.434 94.5 635.234 94.8C631.034 100.5 626.384 105 621.284 108.3C616.184 111.6 610.934 113.25 605.534 113.25C599.934 113.25 595.634 111.4 592.634 107.7C589.634 103.9 588.134 99 588.134 93C588.134 88.4 588.934 83.7 590.534 78.9C592.734 72.2 596.184 65.95 600.884 60.15C605.684 54.35 611.084 49.75 617.084 46.35C623.084 42.85 628.934 41.1 634.634 41.1C638.034 41.1 640.834 41.65 643.034 42.75C645.334 43.85 647.684 45.3 650.084 47.1C651.384 48.1 652.434 48.85 653.234 49.35C654.134 49.85 654.984 50.1 655.784 50.1C656.484 50.1 657.284 49.8 658.184 49.2C659.084 48.5 660.234 47.5 661.634 46.2C664.034 44.1 665.584 42.8 666.284 42.3C666.784 41.8 667.234 41.55 667.634 41.55C668.234 41.55 668.334 42.05 667.934 43.05C665.134 49.15 662.034 57.15 658.634 67.05L649.334 95.25ZM643.934 71.25C645.034 67.45 645.584 63.7 645.584 60C645.584 55.2 644.534 51.3 642.434 48.3C640.434 45.3 637.234 43.8 632.834 43.8C620.034 43.8 611.184 51.5 606.284 66.9C604.284 72.8 603.284 78.7 603.284 84.6C603.284 90.7 604.434 95.65 606.734 99.45C609.134 103.25 612.384 105.15 616.484 105.15C621.784 105.15 626.384 103.3 630.284 99.6C634.184 95.8 637.284 90.7 639.584 84.3L643.934 71.25ZM715.168 41.1C718.168 41.1 720.718 41.85 722.818 43.35C725.018 44.85 726.118 46.7 726.118 48.9C726.118 50.1 725.768 51.35 725.068 52.65L711.418 76.05C711.118 76.45 710.868 76.65 710.668 76.65C710.368 76.65 710.418 76.2 710.818 75.3C713.818 69.2 715.318 64.1 715.318 60C715.318 57.1 714.518 54.95 712.918 53.55C711.418 52.05 709.368 51.3 706.768 51.3C698.468 51.3 691.468 59.5 685.768 75.9L678.718 97.8L676.618 103.95C676.118 105.95 675.718 107.2 675.418 107.7C674.918 109.3 673.868 110.4 672.268 111C670.768 111.5 668.718 111.75 666.118 111.75H662.368C661.868 111.75 661.468 111.6 661.168 111.3C660.968 111 660.968 110.55 661.168 109.95C661.968 107.65 662.568 105.75 662.968 104.25C663.468 102.75 663.868 101.6 664.168 100.8C664.668 99.1 665.018 98.05 665.218 97.65L677.068 60.75C678.368 57.15 679.018 54.3 679.018 52.2C679.018 50.3 678.468 49.25 677.368 49.05C676.368 49.05 675.118 50 673.618 51.9C672.218 53.7 670.968 56.15 669.868 59.25C669.668 59.75 669.368 60 668.968 60C668.668 60 668.618 59.75 668.818 59.25C671.218 52.95 673.868 48.5 676.768 45.9C679.668 43.2 683.118 41.85 687.118 41.85C691.518 41.85 693.718 44.15 693.718 48.75C693.718 50.75 693.268 53.05 692.368 55.65L689.968 62.85C697.568 48.35 705.968 41.1 715.168 41.1ZM777.009 95.25C776.109 98.05 775.659 100.3 775.659 102C775.659 104.2 776.409 105.3 777.909 105.3C779.209 105.3 780.259 105 781.059 104.4C781.959 103.7 782.909 102.35 783.909 100.35C784.909 98.25 786.209 94.95 787.809 90.45C787.909 90.05 788.159 89.85 788.559 89.85C788.759 89.85 788.909 89.95 789.009 90.15C789.109 90.35 789.109 90.65 789.009 91.05C787.009 97.55 784.309 102.8 780.909 106.8C777.509 110.8 773.459 112.8 768.759 112.8C763.959 112.8 761.559 110.35 761.559 105.45C761.559 102.95 762.059 100.25 763.059 97.35L763.209 96.75C763.309 95.95 763.309 95.35 763.209 94.95C763.209 94.55 763.109 94.5 762.909 94.8C758.709 100.5 754.059 105 748.959 108.3C743.859 111.6 738.609 113.25 733.209 113.25C727.609 113.25 723.309 111.4 720.309 107.7C717.309 103.9 715.809 99 715.809 93C715.809 88.4 716.609 83.7 718.209 78.9C720.409 72.2 723.859 65.95 728.559 60.15C733.359 54.35 738.759 49.75 744.759 46.35C750.759 42.85 756.609 41.1 762.309 41.1C765.709 41.1 768.509 41.65 770.709 42.75C773.009 43.85 775.359 45.3 777.759 47.1C779.059 48.1 780.109 48.85 780.909 49.35C781.809 49.85 782.659 50.1 783.459 50.1C784.159 50.1 784.959 49.8 785.859 49.2C786.759 48.5 787.909 47.5 789.309 46.2C791.709 44.1 793.259 42.8 793.959 42.3C794.459 41.8 794.909 41.55 795.309 41.55C795.909 41.55 796.009 42.05 795.609 43.05C792.809 49.15 789.709 57.15 786.309 67.05L777.009 95.25ZM771.609 71.25C772.709 67.45 773.259 63.7 773.259 60C773.259 55.2 772.209 51.3 770.109 48.3C768.109 45.3 764.909 43.8 760.509 43.8C747.709 43.8 738.859 51.5 733.959 66.9C731.959 72.8 730.959 78.7 730.959 84.6C730.959 90.7 732.109 95.65 734.409 99.45C736.809 103.25 740.059 105.15 744.159 105.15C749.459 105.15 754.059 103.3 757.959 99.6C761.859 95.8 764.959 90.7 767.259 84.3L771.609 71.25Z" fill="#282828"/>
</svg>
