<svg width="1600" height="693" viewBox="0 0 1600 693" fill="none" xmlns="http://www.w3.org/2000/svg">
<g opacity="0.5">
<path d="M983.354 170.128L983.005 169.769L983.354 170.127C989.104 164.534 993.052 157.851 996.788 151.143C997.183 150.435 997.575 149.726 997.967 149.019C1001.29 143.009 1004.58 137.069 1008.99 131.862C1018.65 120.457 1030.99 112.847 1044.08 110.774C1057.17 108.703 1071.05 112.152 1083.84 122.949C1092.17 129.98 1097.74 137.207 1103.06 144.106C1104.92 146.52 1106.75 148.893 1108.66 151.204C1116 160.114 1124.41 167.979 1139.92 173.286L1140.08 172.812L1139.92 173.286C1151.89 177.38 1164.03 179.875 1176.14 182.365L1176.94 182.529C1189.33 185.077 1201.69 187.657 1213.89 191.973C1224.12 195.592 1234.73 199.943 1245.57 204.425L1247.47 205.21C1257.71 209.442 1268.15 213.759 1278.67 217.651C1301 225.917 1323.74 232.288 1345.72 231.879C1355.64 231.695 1365.09 229.666 1374.47 227.653C1375.3 227.474 1376.13 227.296 1376.97 227.118C1387.18 224.943 1397.35 222.982 1408.07 223.579C1416.58 224.052 1425.29 225.921 1433.97 227.842L1435.15 228.105C1443.42 229.937 1451.65 231.762 1459.57 232.381C1476.83 233.728 1488.32 229.774 1497.4 221.778C1506.44 213.816 1513.04 201.877 1520.61 187.384C1522.1 184.527 1523.56 181.58 1525.04 178.617C1526.97 174.726 1528.93 170.807 1530.96 167.032C1534.53 160.404 1538.3 154.33 1542.56 149.874C1546.81 145.422 1551.52 142.626 1556.96 142.458C1562.41 142.289 1568.72 144.752 1576.18 151.071C1607.71 177.755 1616.49 222.726 1620.63 261.458C1622.18 276.001 1625.36 290.615 1628.55 305.242C1629.78 310.895 1631.02 316.55 1632.16 322.203C1636.25 342.509 1639.14 362.833 1636.55 383.164C1635.25 393.316 1633.35 403.399 1631.39 413.484C1631.22 414.346 1631.06 415.207 1630.89 416.069C1629.1 425.288 1627.3 434.514 1625.94 443.779C1622.97 464.044 1622.08 484.535 1627.86 505.691C1636.02 535.608 1660.5 559.037 1688.39 579.205C1701.84 588.928 1716.1 597.909 1729.74 606.499L1731.28 607.467C1745.4 616.356 1758.78 624.833 1769.86 633.313C1797.44 654.412 1811.66 673.532 1818.36 695.683C1825.08 717.864 1824.28 743.141 1821.67 776.622C1819.55 803.911 1837.03 819.358 1854.5 834.809L1854.62 834.914C1872.19 850.446 1889.74 866.021 1888.47 893.676C1888.16 900.51 1887.58 906.834 1887.02 912.93C1885.43 930.386 1884 945.974 1889.45 966.324C1892.79 978.791 1897.97 990.577 1903.13 1002.31L1903.85 1003.96C1909.25 1016.26 1914.53 1028.53 1917.6 1041.57C1927.93 1085.39 1912.94 1138.57 1884.82 1172.22C1879.28 1178.85 1874.24 1186.93 1869.19 1195.37C1868.24 1196.97 1867.28 1198.58 1866.32 1200.21C1862.21 1207.14 1858.03 1214.18 1853.51 1220.8C1842.34 1237.12 1829.16 1250.7 1809.92 1253.34C1795.26 1255.35 1781.45 1250.33 1768.22 1245.52C1767.27 1245.18 1766.32 1244.83 1765.37 1244.49L1765.2 1244.96L1765.37 1244.49C1763.79 1243.92 1761.78 1242.98 1759.25 1241.78C1757.83 1241.11 1756.24 1240.37 1754.48 1239.57C1749.58 1237.35 1743.36 1234.74 1735.56 1232.29C1719.95 1227.4 1698.05 1223.18 1667.87 1224.01C1648.98 1224.53 1635.73 1217.98 1623.77 1208.55C1617.86 1203.89 1612.27 1198.53 1606.45 1192.96L1606.22 1192.74C1600.33 1187.09 1594.21 1181.24 1587.33 1175.73C1564.34 1157.31 1538.09 1151.72 1512.21 1146.21C1508.29 1145.38 1504.39 1144.55 1500.51 1143.67C1470.91 1137.02 1442.46 1127.91 1420.27 1097.03C1410.66 1083.65 1403 1069.19 1395.76 1054.72C1394.3 1051.78 1392.85 1048.85 1391.4 1045.92C1385.72 1034.43 1380.1 1023.07 1373.79 1012.42C1357.93 985.682 1337.59 963.369 1300.48 954.413C1284.15 950.469 1267.69 949.685 1251.31 948.906C1248.41 948.768 1245.52 948.631 1242.63 948.476C1223.37 947.443 1204.27 945.642 1185.51 937.968C1177.92 934.862 1170.17 930.024 1162.24 924.571C1158.91 922.282 1155.54 919.878 1152.14 917.451C1147.47 914.117 1142.74 910.739 1137.96 907.557C1121.45 896.547 1104.15 887.627 1086.01 890.162C1067.95 892.685 1056.26 905.222 1044.37 917.981L1043.63 918.782C1031.44 931.852 1018.86 944.981 998.801 948.301C976.2 952.041 959.675 957.126 947.163 967.214C934.642 977.311 926.205 992.365 919.65 1015.9C907.281 1060.27 884.782 1078.06 854.158 1102.26C851.656 1104.24 849.099 1106.26 846.489 1108.34C839.61 1113.83 833.267 1119.33 827.22 1124.56C824.354 1127.04 821.554 1129.47 818.795 1131.81C810.206 1139.09 802.003 1145.55 793.36 1150.42C776.113 1160.14 757.069 1163.54 729.662 1154.22C707.061 1146.54 685.17 1147.03 663.704 1147.51C661.526 1147.56 659.352 1147.61 657.183 1147.65C633.606 1148.08 610.483 1147.5 587.2 1135.1C584.737 1133.79 582.292 1132.5 579.869 1131.22C541.003 1110.65 507.533 1092.94 488.908 1049.63L488.449 1049.83L488.908 1049.63C481.842 1033.2 471.305 1018.18 460.841 1003.27C459.83 1001.83 458.821 1000.39 457.815 998.951C446.378 982.585 435.436 966.187 429.541 947.943C423.643 929.679 423.563 911.091 424.346 892.375C424.479 889.174 424.639 885.969 424.798 882.762C425.569 867.235 426.343 851.643 424.265 836.186C421.947 818.946 419.097 801.827 416.247 784.715C410.759 751.76 405.276 718.831 403.615 685.112L403.145 685.135L403.615 685.112C402.618 664.91 404.847 646.805 407.861 627.316C410.007 613.454 413.875 604.665 419.777 596.871C424.396 590.77 430.256 585.279 437.557 578.437C439.625 576.5 441.807 574.454 444.11 572.256C468.333 549.137 489.103 523.147 505.849 494.09C512.741 482.134 517.664 468.945 522.557 455.84C523.178 454.177 523.798 452.515 524.422 450.858C529.968 436.117 535.791 421.686 544.673 409.321C556.193 393.284 569.945 380.213 585.201 374.174C600.422 368.148 617.19 369.101 634.85 381.204C638.132 383.455 641.254 386.548 644.398 389.925C645.437 391.041 646.48 392.19 647.532 393.348C649.646 395.677 651.793 398.042 654.006 400.248C660.638 406.858 668.052 412.242 677.582 411.378C683.459 410.845 689.174 408.147 694.806 404.329C700.438 400.511 706.026 395.544 711.644 390.429C712.288 389.842 712.933 389.254 713.578 388.665C718.569 384.109 723.594 379.522 728.733 375.563C734.535 371.094 740.449 367.452 746.574 365.575L746.451 365.174L746.574 365.575C750.938 364.237 756.137 363.315 761.721 362.457C763.285 362.217 764.879 361.981 766.493 361.743C770.627 361.133 774.887 360.504 779.081 359.725C790.725 357.565 802.038 354.23 809.057 346.779C818.16 337.117 819.794 322.895 820.192 308.347C820.274 305.35 820.303 302.346 820.332 299.361C820.374 295.057 820.416 290.79 820.614 286.633C820.949 279.611 821.73 273.001 823.698 267.274C831.739 243.874 848.982 232.55 869.073 224.694C877.302 221.477 885.989 218.849 894.712 216.21C896.648 215.625 898.586 215.039 900.52 214.446C911.161 211.183 921.705 207.709 931.309 202.938C947.53 194.884 970.34 182.781 983.354 170.128Z" stroke="#A4A097"/>
<path d="M912.486 198.67L912.137 198.312L912.486 198.67C918.236 193.077 922.184 186.394 925.92 179.686C926.315 178.978 926.707 178.269 927.099 177.562C930.426 171.552 933.714 165.612 938.122 160.405C947.777 149 960.118 141.389 973.215 139.317C986.3 137.246 1000.19 140.695 1012.98 151.492C1021.3 158.523 1026.87 165.75 1032.19 172.649C1034.05 175.063 1035.88 177.436 1037.79 179.747C1045.14 188.657 1053.54 196.522 1069.05 201.829L1069.21 201.355L1069.05 201.828C1081.02 205.923 1093.16 208.418 1105.27 210.908L1106.07 211.072C1118.46 213.62 1130.82 216.2 1143.03 220.516C1153.26 224.135 1163.86 228.486 1174.71 232.968L1176.61 233.753C1186.84 237.985 1197.28 242.302 1207.8 246.194C1230.14 254.46 1252.87 260.831 1274.85 260.422C1284.77 260.238 1294.23 258.209 1303.6 256.196C1304.43 256.017 1305.27 255.839 1306.1 255.661C1316.31 253.486 1326.48 251.525 1337.2 252.122C1345.71 252.595 1354.42 254.464 1363.1 256.385L1364.29 256.648C1372.55 258.48 1380.78 260.305 1388.7 260.924C1405.96 262.271 1417.46 258.317 1426.53 250.321C1435.57 242.359 1442.18 230.42 1449.74 215.927C1451.23 213.07 1452.69 210.123 1454.17 207.16C1456.11 203.268 1458.06 199.35 1460.09 195.575C1463.66 188.947 1467.43 182.873 1471.69 178.417C1475.95 173.965 1480.65 171.169 1486.09 171.001C1491.54 170.832 1497.85 173.295 1505.31 179.614C1536.85 206.298 1545.62 251.269 1549.76 290.001C1551.31 304.544 1554.5 319.158 1557.68 333.785C1558.92 339.438 1560.15 345.093 1561.29 350.746C1565.38 371.052 1568.27 391.375 1565.68 411.707C1564.39 421.858 1562.48 431.942 1560.52 442.027C1560.36 442.889 1560.19 443.75 1560.02 444.612C1558.23 453.831 1556.43 463.057 1555.08 472.322C1552.11 492.587 1551.22 513.078 1556.99 534.234C1565.15 564.151 1589.63 587.58 1617.52 607.748C1630.97 617.471 1645.23 626.452 1658.88 635.042L1660.41 636.01C1674.53 644.899 1687.91 653.376 1698.99 661.856C1726.57 682.955 1740.79 702.075 1747.49 724.226C1754.21 746.407 1753.41 771.684 1750.8 805.165C1748.68 832.454 1766.16 847.901 1783.63 863.352L1783.75 863.457C1801.32 878.989 1818.87 894.564 1817.6 922.219C1817.29 929.053 1816.71 935.377 1816.15 941.473C1814.56 958.929 1813.13 974.517 1818.58 994.867C1821.92 1007.33 1827.1 1019.12 1832.26 1030.85L1832.99 1032.51C1838.38 1044.8 1843.66 1057.07 1846.74 1070.11C1857.06 1113.93 1842.07 1167.11 1813.95 1200.76C1808.41 1207.39 1803.37 1215.47 1798.33 1223.91C1797.37 1225.51 1796.41 1227.13 1795.45 1228.75C1791.34 1235.68 1787.16 1242.72 1782.64 1249.34C1771.48 1265.67 1758.29 1279.24 1739.05 1281.88C1724.39 1283.89 1710.58 1278.87 1697.35 1274.07C1696.4 1273.72 1695.45 1273.38 1694.51 1273.03L1694.34 1273.51L1694.51 1273.03C1692.93 1272.47 1690.92 1271.52 1688.38 1270.32C1686.96 1269.66 1685.38 1268.91 1683.61 1268.11C1678.72 1265.89 1672.49 1263.28 1664.69 1260.84C1649.08 1255.95 1627.18 1251.72 1597 1252.55C1578.11 1253.07 1564.87 1246.53 1552.9 1237.1C1546.99 1232.44 1541.4 1227.08 1535.59 1221.5L1535.35 1221.28C1529.46 1215.63 1523.35 1209.78 1516.47 1204.27C1493.47 1185.86 1467.22 1180.27 1441.34 1174.75C1437.43 1173.92 1433.52 1173.09 1429.64 1172.22C1400.05 1165.56 1371.59 1156.45 1349.4 1125.57C1339.79 1112.19 1332.13 1097.73 1324.9 1083.26C1323.43 1080.33 1321.98 1077.39 1320.53 1074.47C1314.85 1062.97 1309.24 1051.61 1302.92 1040.96C1287.06 1014.23 1266.73 991.912 1229.62 982.956C1213.28 979.012 1196.82 978.228 1180.44 977.449C1177.54 977.311 1174.65 977.174 1171.76 977.019C1152.51 975.986 1133.4 974.185 1114.64 966.511C1107.05 963.405 1099.3 958.567 1091.37 953.114C1088.05 950.825 1084.68 948.421 1081.27 945.994C1076.6 942.66 1071.87 939.282 1067.1 936.1C1050.59 925.09 1033.28 916.17 1015.14 918.704C997.082 921.228 985.396 933.765 973.504 946.524L972.757 947.325C960.567 960.395 947.989 973.524 927.933 976.844C905.332 980.584 888.807 985.669 876.295 995.757C863.773 1005.85 855.337 1020.91 848.782 1044.44C836.412 1088.81 813.914 1106.6 783.29 1130.81C780.788 1132.78 778.231 1134.81 775.621 1136.89C768.742 1142.37 762.399 1147.87 756.352 1153.11C753.485 1155.59 750.686 1158.01 747.927 1160.35C739.338 1167.63 731.135 1174.1 722.491 1178.97C705.245 1188.68 686.201 1192.08 658.794 1182.77C636.192 1175.09 614.302 1175.58 592.835 1176.05C590.658 1176.1 588.484 1176.15 586.315 1176.19C562.738 1176.62 539.615 1176.04 516.332 1163.65C513.869 1162.34 511.424 1161.04 509.001 1159.76C470.135 1139.2 436.665 1121.49 418.04 1078.17L417.581 1078.37L418.04 1078.17C410.974 1061.74 400.437 1046.73 389.972 1031.81C388.962 1030.37 387.953 1028.93 386.947 1027.49C375.51 1011.13 364.568 994.73 358.673 976.486C352.774 958.222 352.695 939.634 353.477 920.917C353.611 917.717 353.77 914.512 353.93 911.305C354.7 895.778 355.474 880.186 353.397 864.729C351.079 847.489 348.229 830.37 345.379 813.258C339.891 780.303 334.408 747.374 332.746 713.655L332.277 713.678L332.746 713.655C331.749 693.453 333.979 675.348 336.993 655.859C339.138 641.997 343.007 633.208 348.909 625.413C353.528 619.313 359.388 613.822 366.689 606.98C368.757 605.043 370.939 602.997 373.242 600.799C397.465 577.68 418.235 551.69 434.981 522.633C441.873 510.677 446.796 497.488 451.689 484.383C452.309 482.72 452.93 481.058 453.553 479.401C459.1 464.66 464.923 450.229 473.805 437.864C485.325 421.827 499.077 408.756 514.332 402.717C529.554 396.691 546.322 397.644 563.982 409.747C567.264 411.998 570.386 415.091 573.53 418.468C574.569 419.584 575.612 420.733 576.663 421.891C578.778 424.22 580.925 426.585 583.138 428.791C589.769 435.401 597.183 440.785 606.714 439.921C612.591 439.388 618.306 436.69 623.938 432.872C629.569 429.054 635.158 424.087 640.776 418.972C641.42 418.385 642.065 417.797 642.709 417.208C647.701 412.652 652.726 408.065 657.865 404.106C663.667 399.637 669.581 395.995 675.706 394.118L675.583 393.717L675.706 394.118C680.07 392.78 685.269 391.858 690.853 391C692.416 390.76 694.011 390.524 695.624 390.286C699.759 389.676 704.019 389.046 708.213 388.268C719.857 386.108 731.17 382.773 738.189 375.322C747.291 365.66 748.926 351.438 749.324 336.89C749.406 333.893 749.435 330.889 749.464 327.903C749.506 323.6 749.548 319.333 749.746 315.176C750.081 308.154 750.862 301.544 752.83 295.817C760.87 272.417 778.114 261.093 798.205 253.237C806.434 250.02 815.121 247.392 823.844 244.753C825.78 244.168 827.717 243.582 829.652 242.989C840.293 239.726 850.837 236.252 860.441 231.481C876.662 223.427 899.472 211.324 912.486 198.67Z" stroke="#A4A097"/>
<path d="M970.303 269.701L969.954 269.342L970.303 269.701C976.053 264.107 980.001 257.424 983.738 250.717C984.132 250.008 984.524 249.3 984.916 248.592C988.243 242.582 991.531 236.642 995.94 231.435C1005.59 220.031 1017.93 212.42 1031.03 210.347C1044.12 208.276 1058 211.725 1070.79 222.523C1079.12 229.553 1084.69 236.781 1090.01 243.679C1091.87 246.093 1093.7 248.466 1095.6 250.777C1102.95 259.687 1111.36 267.552 1126.87 272.859L1127.03 272.386L1126.87 272.859C1138.84 276.953 1150.98 279.448 1163.09 281.938L1163.89 282.103C1176.28 284.65 1188.64 287.23 1200.84 291.546C1211.07 295.165 1221.68 299.516 1232.52 303.998L1234.42 304.783C1244.66 309.015 1255.1 313.332 1265.62 317.225C1287.95 325.49 1310.69 331.862 1332.67 331.452C1342.59 331.268 1352.04 329.239 1361.42 327.226C1362.25 327.048 1363.08 326.869 1363.92 326.692C1374.13 324.516 1384.3 322.555 1395.02 323.152C1403.53 323.625 1412.24 325.494 1420.92 327.415L1422.1 327.678C1430.37 329.511 1438.6 331.335 1446.52 331.954C1463.78 333.302 1475.27 329.347 1484.35 321.351C1493.39 313.389 1499.99 301.45 1507.55 286.957C1509.04 284.101 1510.51 281.153 1511.99 278.19C1513.92 274.299 1515.87 270.38 1517.91 266.605C1521.48 259.977 1525.25 253.903 1529.51 249.447C1533.76 244.995 1538.47 242.199 1543.91 242.031C1549.36 241.863 1555.66 244.325 1563.13 250.644C1594.66 277.328 1603.44 322.299 1607.58 361.032C1609.13 375.574 1612.31 390.189 1615.5 404.815C1616.73 410.468 1617.97 416.123 1619.1 421.776C1623.19 442.082 1626.09 462.406 1623.5 482.737C1622.2 492.889 1620.3 502.972 1618.34 513.057C1618.17 513.919 1618.01 514.78 1617.84 515.642C1616.04 524.862 1614.25 534.088 1612.89 543.352C1609.92 563.617 1609.03 584.108 1614.81 605.265C1622.97 635.181 1647.45 658.611 1675.34 678.778C1688.79 688.502 1703.05 697.482 1716.69 706.073L1718.23 707.041C1732.34 715.929 1745.73 724.407 1756.81 732.886C1784.38 753.986 1798.61 773.105 1805.31 795.256C1812.03 817.437 1811.22 842.714 1808.62 876.195C1806.5 903.484 1823.97 918.931 1841.45 934.382L1841.57 934.488C1859.14 950.019 1876.69 965.595 1875.42 993.25C1875.1 1000.08 1874.53 1006.41 1873.97 1012.5C1872.37 1029.96 1870.95 1045.55 1876.4 1065.9C1879.74 1078.36 1884.92 1090.15 1890.08 1101.88L1890.8 1103.54C1896.2 1115.83 1901.48 1128.1 1904.55 1141.14C1914.88 1184.96 1899.89 1238.14 1871.77 1271.79C1866.23 1278.42 1861.19 1286.5 1856.14 1294.94C1855.19 1296.54 1854.23 1298.16 1853.27 1299.78C1849.16 1306.71 1844.98 1313.75 1840.46 1320.37C1829.29 1336.7 1816.11 1350.27 1796.87 1352.91C1782.21 1354.92 1768.4 1349.9 1755.17 1345.1C1754.22 1344.75 1753.27 1344.41 1752.32 1344.07L1752.15 1344.54L1752.32 1344.07C1750.74 1343.5 1748.73 1342.55 1746.2 1341.35C1744.78 1340.69 1743.19 1339.94 1741.43 1339.14C1736.53 1336.92 1730.31 1334.31 1722.5 1331.87C1706.9 1326.98 1685 1322.75 1654.82 1323.58C1635.93 1324.1 1622.68 1317.56 1610.72 1308.13C1604.81 1303.47 1599.22 1298.11 1593.4 1292.53L1593.17 1292.31C1587.28 1286.66 1581.16 1280.81 1574.28 1275.3C1551.29 1256.89 1525.04 1251.3 1499.15 1245.78C1495.24 1244.95 1491.34 1244.12 1487.46 1243.25C1457.86 1236.59 1429.41 1227.48 1407.22 1196.6C1397.61 1183.22 1389.95 1168.76 1382.71 1154.29C1381.25 1151.36 1379.8 1148.42 1378.35 1145.5C1372.67 1134 1367.05 1122.64 1360.74 1111.99C1344.88 1085.26 1324.54 1062.94 1287.43 1053.99C1271.1 1050.04 1254.64 1049.26 1238.26 1048.48C1235.36 1048.34 1232.47 1048.2 1229.58 1048.05C1210.32 1047.02 1191.22 1045.22 1172.46 1037.54C1164.87 1034.43 1157.12 1029.6 1149.19 1024.14C1145.86 1021.86 1142.49 1019.45 1139.09 1017.02C1134.42 1013.69 1129.68 1010.31 1124.91 1007.13C1108.4 996.12 1091.1 987.2 1072.96 989.735C1054.9 992.259 1043.21 1004.8 1031.32 1017.55L1030.57 1018.35C1018.38 1031.43 1005.81 1044.55 985.75 1047.87C963.149 1051.61 946.624 1056.7 934.112 1066.79C921.591 1076.88 913.154 1091.94 906.599 1115.47C894.23 1159.84 871.732 1177.63 841.107 1201.84C838.605 1203.81 836.048 1205.84 833.438 1207.92C826.559 1213.41 820.216 1218.9 814.169 1224.14C811.303 1226.62 808.503 1229.04 805.744 1231.38C797.155 1238.66 788.952 1245.13 780.309 1250C763.062 1259.71 744.018 1263.11 716.612 1253.8C694.01 1246.12 672.12 1246.61 650.653 1247.08C648.475 1247.13 646.301 1247.18 644.132 1247.22C620.555 1247.66 597.432 1247.07 574.149 1234.68C571.686 1233.37 569.242 1232.07 566.818 1230.79C527.952 1210.23 494.482 1192.52 475.857 1149.2L475.398 1149.4L475.857 1149.2C468.791 1132.77 458.254 1117.76 447.79 1102.84C446.779 1101.4 445.77 1099.96 444.764 1098.52C433.327 1082.16 422.385 1065.76 416.49 1047.52C410.592 1029.25 410.512 1010.66 411.295 991.948C411.429 988.747 411.588 985.543 411.747 982.335C412.518 966.808 413.292 951.216 411.214 935.76C408.897 918.519 406.046 901.4 403.196 884.288C397.708 851.333 392.225 818.404 390.564 784.685L390.094 784.708L390.564 784.685C389.567 764.483 391.797 746.379 394.81 726.89C396.956 713.027 400.824 704.238 406.726 696.444C411.345 690.343 417.205 684.852 424.507 678.01C426.574 676.073 428.757 674.027 431.059 671.829C455.282 648.71 476.052 622.72 492.798 593.663C499.69 581.707 504.613 568.519 509.506 555.413C510.127 553.75 510.747 552.089 511.371 550.431C516.917 535.691 522.741 521.259 531.623 508.894C543.143 492.858 556.894 479.787 572.15 473.747C587.371 467.721 604.14 468.674 621.799 480.778C625.081 483.028 628.203 486.122 631.347 489.498C632.386 490.614 633.429 491.764 634.481 492.922C636.595 495.25 638.742 497.615 640.955 499.821C647.587 506.431 655.001 511.816 664.531 510.951C670.408 510.418 676.124 507.721 681.755 503.903C687.387 500.084 692.975 495.117 698.594 490.002C699.237 489.416 699.882 488.827 700.527 488.239C705.518 483.682 710.543 479.095 715.682 475.136C721.484 470.667 727.399 467.026 733.523 465.149L733.4 464.748L733.523 465.149C737.887 463.81 743.086 462.889 748.67 462.03C750.234 461.79 751.828 461.555 753.442 461.316C757.576 460.706 761.836 460.077 766.03 459.299C777.674 457.139 788.987 453.803 796.006 446.352C805.109 436.69 806.743 422.469 807.141 407.92C807.223 404.923 807.252 401.92 807.281 398.934C807.323 394.63 807.365 390.363 807.563 386.207C807.898 379.185 808.679 372.574 810.647 366.847C818.688 343.448 835.931 332.123 856.022 324.268C864.251 321.05 872.938 318.422 881.661 315.784C883.597 315.198 885.535 314.612 887.469 314.019C898.11 310.756 908.654 307.282 918.258 302.511C934.479 294.457 957.289 282.355 970.303 269.701Z" stroke="#A4A097"/>
</g>
</svg>
