<svg width="1920" height="550" viewBox="0 0 1920 550" fill="none" xmlns="http://www.w3.org/2000/svg">
<g clip-path="url(#clip0_110_51)">
<path d="M-7.03502 -132.479L-7.0399 -132.97L-7.03492 -132.479C-4.52385 -132.504 -1.63137 -132.179 1.46969 -131.759C2.3358 -131.641 3.21844 -131.516 4.1124 -131.389C6.40609 -131.064 8.77422 -130.729 11.1286 -130.483C17.6554 -129.802 24.2556 -129.787 29.2229 -132.683C35.657 -136.434 38.7787 -143.813 41.2735 -151.476C41.7905 -153.064 42.2786 -154.658 42.7631 -156.24C43.4596 -158.515 44.1488 -160.766 44.9063 -162.941C46.1848 -166.613 47.6295 -169.978 49.5557 -172.686C57.4481 -183.779 68.3097 -187.074 80.1864 -188.089C85.0538 -188.505 90.071 -188.537 95.1192 -188.569C96.2405 -188.577 97.3634 -188.584 98.4865 -188.595C104.653 -188.657 110.816 -188.847 116.687 -189.877C126.565 -191.608 140.618 -194.46 149.555 -199.158C153.52 -201.243 156.687 -204.195 159.726 -207.172C160.047 -207.487 160.367 -207.801 160.686 -208.116C163.399 -210.788 166.063 -213.412 169.203 -215.472C176.087 -219.992 183.786 -222.078 191.007 -221.131C198.216 -220.185 204.996 -216.211 210.062 -208.517C213.367 -203.496 215.18 -198.812 216.92 -194.317C217.531 -192.739 218.133 -191.183 218.788 -189.645C221.303 -183.732 224.558 -178.194 232.007 -172.909C237.736 -168.845 243.802 -165.608 249.842 -162.385L250.246 -162.17C256.429 -158.87 262.579 -155.565 268.371 -151.365C273.232 -147.84 278.179 -143.867 283.237 -139.782L284.121 -139.068C288.895 -135.212 293.767 -131.276 298.749 -127.553C309.324 -119.649 320.431 -112.673 332.211 -109.428C337.532 -107.962 342.896 -107.554 348.189 -107.151C348.661 -107.115 349.132 -107.08 349.602 -107.043C355.37 -106.595 361.052 -106.041 366.626 -104.051C371.053 -102.47 375.371 -100.119 379.682 -97.7342L380.276 -97.4053C384.374 -95.1363 388.472 -92.8681 392.599 -91.2895C401.602 -87.8457 408.394 -88.1349 414.537 -90.9872C420.634 -93.818 426.044 -99.157 432.332 -105.664C433.58 -106.955 434.823 -108.292 436.072 -109.635C437.708 -111.394 439.352 -113.161 441.026 -114.848C443.961 -117.806 446.9 -120.423 449.836 -122.106C452.767 -123.786 455.643 -124.507 458.484 -123.762C461.332 -123.015 464.256 -120.766 467.214 -116.261C479.722 -97.2143 477.345 -72.0274 473.458 -50.7976C471.997 -42.815 471.393 -34.5318 470.789 -26.2559C470.556 -23.0618 470.323 -19.8688 470.041 -16.6946C469.026 -5.26952 467.373 5.95198 462.82 16.3124C460.542 21.4954 457.948 26.5471 455.325 31.5979C455.101 32.0291 454.877 32.4602 454.653 32.8914C452.253 37.5077 449.848 42.1325 447.669 46.8468C442.903 57.1599 439.199 67.9388 438.942 80.1288C438.579 97.3857 447.947 113.73 459.604 128.832C465.225 136.115 471.398 143.131 477.296 149.836L477.962 150.594C484.066 157.534 489.837 164.131 494.386 170.367C505.706 185.883 510.235 198.23 510.318 210.99C510.402 223.781 506.023 237.047 499.38 254.43C493.929 268.699 500.841 279.736 507.685 290.666L507.751 290.771C514.653 301.793 521.461 312.734 516.483 327.114C515.25 330.677 513.954 333.936 512.703 337.082C509.11 346.116 505.886 354.222 505.585 365.932C505.401 373.097 506.304 380.188 507.201 387.227C507.243 387.56 507.285 387.892 507.327 388.224C508.265 395.605 509.139 402.934 508.725 410.322C507.337 435.147 491.063 460.983 470.892 474.412C466.891 477.076 462.933 480.585 458.927 484.277C458.165 484.979 457.402 485.688 456.637 486.398C453.365 489.436 450.046 492.516 446.61 495.315C438.126 502.227 429.054 507.314 418.517 505.711C410.469 504.487 403.962 499.683 397.679 495.046C397.231 494.715 396.784 494.385 396.338 494.057L396.048 494.451L396.337 494.057C395.595 493.513 394.689 492.706 393.536 491.679C392.886 491.101 392.158 490.452 391.336 489.741C389.08 487.789 386.175 485.419 382.403 482.889C374.859 477.827 363.867 472.132 347.68 467.827C337.624 465.153 331.654 459.637 326.801 452.779C324.398 449.382 322.273 445.663 320.057 441.785L319.973 441.638C317.731 437.714 315.394 433.636 312.599 429.619C303.243 416.177 290.122 409.058 277.238 402.067C275.292 401.011 273.351 399.958 271.43 398.887C256.764 390.709 243.137 381.435 236.227 361.626C233.227 353.026 231.434 344.154 229.861 335.331C229.543 333.545 229.234 331.76 228.925 329.98C227.712 322.98 226.511 316.051 224.825 309.394C220.588 292.665 213.265 277.553 194.885 266.926C186.807 262.254 178.16 259.245 169.581 256.259C168.065 255.731 166.551 255.204 165.042 254.669C154.979 251.098 145.142 247.151 136.412 240.153C132.885 237.326 129.542 233.555 126.188 229.416C124.785 227.684 123.374 225.88 121.948 224.056C119.985 221.547 117.995 219.001 115.959 216.561C108.916 208.117 101.075 200.598 90.9503 199.083C80.8806 197.576 72.641 202.439 64.3397 207.338L63.7922 207.661C55.2576 212.694 46.5754 217.651 35.483 216.275C22.8792 214.712 13.2533 214.812 4.96649 218.23C-3.33209 221.652 -10.2096 228.369 -17.3995 239.86C-30.9003 261.431 -45.5837 267.321 -65.6553 275.374C-67.2939 276.031 -68.9684 276.703 -70.681 277.399C-75.2011 279.235 -79.441 281.161 -83.4778 282.995C-85.3897 283.863 -87.256 284.711 -89.085 285.518C-94.7894 288.037 -100.146 290.176 -105.482 291.401C-116.106 293.84 -126.693 292.668 -139.741 283.452L-140.029 283.86L-139.741 283.452C-150.576 275.798 -162.321 272.61 -173.797 269.495C-174.962 269.179 -176.125 268.863 -177.284 268.544C-189.875 265.072 -202.018 261.144 -212.398 250.945C-213.497 249.864 -214.589 248.797 -215.672 247.738C-233.1 230.7 -248.047 216.088 -251.13 190.231L-251.626 190.291L-251.13 190.231C-252.307 180.369 -255.554 170.714 -258.77 161.151C-259.081 160.227 -259.392 159.303 -259.701 158.38C-263.208 147.888 -266.434 137.487 -266.7 126.906C-266.965 116.318 -264.1 106.463 -260.746 96.6452C-260.174 94.9696 -259.587 93.2943 -258.999 91.6167C-256.151 83.4883 -253.283 75.303 -251.956 66.7431C-250.477 57.2047 -249.303 47.6548 -248.129 38.1131C-245.871 19.7514 -243.616 1.41957 -239.206 -16.7438L-239.664 -16.855L-239.206 -16.7439C-236.569 -27.6105 -232.549 -36.8623 -227.889 -46.7399C-224.586 -53.7396 -221.172 -57.7705 -216.847 -60.9596C-213.452 -63.463 -209.498 -65.449 -204.549 -67.9354C-203.144 -68.641 -201.659 -69.387 -200.084 -70.1965C-183.567 -78.6844 -168.433 -89.2428 -154.957 -102.066C-149.403 -107.349 -144.705 -113.599 -140.049 -119.791C-139.458 -120.577 -138.868 -121.363 -138.276 -122.145C-133.014 -129.105 -127.67 -135.836 -121.035 -140.99C-112.413 -147.688 -103.095 -152.445 -94.1016 -153.253C-85.1448 -154.057 -76.4573 -150.95 -69.0212 -141.802C-67.6473 -140.111 -66.4832 -137.996 -65.3444 -135.711C-64.9702 -134.96 -64.5977 -134.189 -64.2217 -133.41C-63.4627 -131.837 -62.689 -130.235 -61.8571 -128.711C-59.3661 -124.147 -56.2301 -120.041 -50.9273 -118.983C-47.6685 -118.333 -44.1668 -118.88 -40.5586 -120.029C-36.9497 -121.179 -33.1872 -122.947 -29.4001 -124.782C-28.9656 -124.993 -28.5308 -125.204 -28.0957 -125.416C-24.7273 -127.053 -21.3461 -128.697 -18.0038 -129.989C-14.2304 -131.448 -10.545 -132.444 -7.03502 -132.479Z" stroke="#dad3cb"/>
</g>
<defs>
<clipPath id="clip0_110_51">
<rect width="1920" height="550" fill="white"/>
</clipPath>
</defs>
</svg>
