<svg width="1647" height="786" viewBox="0 0 1647 786" fill="none" xmlns="http://www.w3.org/2000/svg">
<path d="M1824.3 -35.6506L1823.81 -35.6917C1822.14 -15.5336 1817.56 2.12201 1812.02 21.0474C1808.07 34.5086 1803.08 42.7142 1796.21 49.6671C1790.83 55.109 1784.3 59.7842 1776.16 65.6092C1773.86 67.2584 1771.43 68.9997 1768.86 70.8768C1741.81 90.6185 1717.81 113.659 1697.4 140.269C1689 151.217 1682.39 163.646 1675.82 175.997C1674.98 177.564 1674.15 179.13 1673.31 180.691C1665.88 194.576 1658.22 208.119 1647.79 219.212C1634.26 233.599 1618.92 244.753 1603 248.739C1587.12 252.716 1570.62 249.572 1554.7 235.257C1551.75 232.595 1549.06 229.119 1546.38 225.359C1545.5 224.116 1544.61 222.84 1543.72 221.554C1541.93 218.968 1540.12 216.342 1538.21 213.865C1532.5 206.442 1525.86 200.132 1516.3 199.738C1510.4 199.496 1504.38 201.421 1498.3 204.467C1492.22 207.513 1486.02 211.705 1479.78 216.039C1479.07 216.535 1478.35 217.034 1477.63 217.533C1472.09 221.395 1466.51 225.284 1460.89 228.534C1454.55 232.204 1448.21 235.038 1441.89 236.095C1437.39 236.849 1432.12 237.081 1426.47 237.2C1424.89 237.233 1423.28 237.257 1421.65 237.281C1417.47 237.344 1413.16 237.409 1408.9 237.63C1397.07 238.244 1385.42 240.067 1377.49 246.533C1367.19 254.917 1363.71 268.802 1361.41 283.172C1360.93 286.132 1360.51 289.106 1360.09 292.062C1359.48 296.324 1358.88 300.548 1358.14 304.643C1356.89 311.56 1355.24 318.011 1352.54 323.43C1341.5 345.573 1322.92 354.538 1301.97 359.69C1293.39 361.8 1284.44 363.265 1275.44 364.737C1273.45 365.064 1271.45 365.39 1269.45 365.725C1258.48 367.563 1247.57 369.625 1237.42 373.094C1220.28 378.951 1196.08 387.957 1181.52 398.794C1175.09 403.585 1170.3 409.692 1165.71 415.852C1165.23 416.502 1164.75 417.153 1164.27 417.803C1160.18 423.325 1156.14 428.783 1151.09 433.366C1140.02 443.405 1126.79 449.332 1113.53 449.669C1100.29 450.005 1086.97 444.765 1075.71 432.382C1068.38 424.321 1063.81 416.425 1059.44 408.888C1057.91 406.251 1056.41 403.658 1054.82 401.118C1048.71 391.321 1041.4 382.42 1026.72 375.125C1015.39 369.496 1003.69 365.431 992.009 361.373L991.237 361.105C979.29 356.955 967.373 352.776 955.84 346.896C946.172 341.966 936.231 336.262 926.067 330.395L924.293 329.371C914.7 323.832 904.913 318.182 894.994 312.942C873.935 301.818 852.229 292.519 830.39 290.042C820.531 288.923 810.891 289.695 801.333 290.46C800.484 290.528 799.635 290.596 798.787 290.663C788.377 291.48 778.04 292.09 767.486 290.091C759.112 288.506 750.723 285.511 742.372 282.468L741.232 282.052C733.279 279.151 725.361 276.263 717.588 274.61C700.654 271.01 688.74 273.422 678.691 280.158C668.685 286.865 660.574 297.836 651.177 311.212C649.325 313.848 647.484 316.577 645.633 319.321C643.202 322.925 640.754 326.554 638.243 330.029C633.834 336.132 629.3 341.659 624.493 345.518C619.69 349.373 614.661 351.528 609.243 350.981C603.819 350.432 597.89 347.164 591.317 339.921C563.558 309.331 560.755 263.597 561.737 224.657C562.106 210.036 560.865 195.13 559.624 180.212C559.144 174.446 558.664 168.678 558.277 162.925C556.885 142.257 556.685 121.73 561.919 101.914C564.532 92.0199 567.745 82.2738 571.008 72.5327C571.287 71.7004 571.566 70.8682 571.845 70.036C574.832 61.1313 577.821 52.2203 580.382 43.214C585.985 23.5137 589.554 3.31634 586.607 -18.4144C582.44 -49.1432 561.247 -75.5812 536.241 -99.2335C524.186 -110.636 511.223 -121.411 498.825 -131.716L497.427 -132.878C484.601 -143.541 472.448 -153.7 462.574 -163.56C438.002 -188.095 426.412 -208.915 422.67 -231.755C418.923 -254.625 423.034 -279.577 430.007 -312.428C435.688 -339.203 420.392 -356.809 405.092 -374.419L404.988 -374.539C389.609 -392.241 374.257 -409.984 379.143 -437.233C380.349 -443.967 381.752 -450.161 383.104 -456.131C386.975 -473.227 390.431 -488.493 387.698 -509.382C386.022 -522.179 382.434 -534.542 378.861 -546.85L378.358 -548.585C374.619 -561.48 370.996 -574.338 369.659 -587.67C365.167 -632.465 387.006 -683.216 419.295 -712.89C425.657 -718.737 431.715 -726.082 437.824 -733.788C438.984 -735.251 440.146 -736.727 441.312 -738.209C446.295 -744.541 451.359 -750.976 456.711 -756.94C469.921 -771.663 484.773 -783.387 504.19 -783.481C518.987 -783.553 532.023 -776.766 544.507 -770.266C545.404 -769.798 546.299 -769.332 547.192 -768.87L547.422 -769.314L547.192 -768.87C548.684 -768.099 550.553 -766.897 552.912 -765.379C554.23 -764.531 555.702 -763.584 557.347 -762.559C561.909 -759.716 567.738 -756.313 575.153 -752.866C589.984 -745.972 611.137 -738.909 641.164 -735.772C659.962 -733.809 672.235 -725.585 682.856 -714.668C688.106 -709.272 692.948 -703.223 697.98 -696.936L698.179 -696.687C703.278 -690.316 708.576 -683.712 714.673 -677.348C735.051 -656.073 760.345 -647.088 785.281 -638.229C789.049 -636.89 792.809 -635.554 796.543 -634.18C825.009 -623.698 852.026 -610.933 869.97 -577.412C877.745 -562.887 883.438 -547.544 888.714 -532.249C889.784 -529.149 890.836 -526.05 891.886 -522.961C896.01 -510.819 900.086 -498.819 904.951 -487.436C917.169 -458.849 934.398 -434.061 970.012 -420.314C985.688 -414.262 1001.91 -411.325 1018.04 -408.405C1020.9 -407.888 1023.75 -407.372 1026.59 -406.839C1045.54 -403.29 1064.25 -398.998 1081.84 -388.93C1088.96 -384.854 1096 -379.042 1103.15 -372.597C1106.15 -369.89 1109.17 -367.065 1112.23 -364.212C1116.42 -360.294 1120.67 -356.325 1124.98 -352.544C1139.9 -339.464 1155.89 -328.351 1174.21 -328.484C1192.44 -328.617 1205.67 -339.513 1219.13 -350.602L1219.98 -351.297C1233.78 -362.656 1247.97 -374.021 1268.29 -374.682C1291.18 -375.425 1308.23 -378.298 1321.96 -386.658C1335.7 -395.025 1346.04 -408.841 1355.62 -431.309C1373.7 -473.679 1398.34 -488.358 1431.88 -508.339C1434.62 -509.972 1437.42 -511.64 1440.28 -513.362C1447.82 -517.9 1454.83 -522.513 1461.51 -526.911C1464.67 -528.997 1467.77 -531.033 1470.81 -532.99C1480.28 -539.083 1489.26 -544.415 1498.47 -548.109C1516.84 -555.479 1536.16 -556.348 1562.11 -543.519C1583.51 -532.941 1605.28 -530.554 1626.62 -528.213C1628.79 -527.976 1630.95 -527.739 1633.1 -527.494C1656.53 -524.831 1679.38 -521.221 1700.84 -505.877C1703.11 -504.254 1705.36 -502.651 1707.59 -501.062C1743.43 -475.578 1774.28 -453.631 1787.07 -408.248C1791.92 -391.034 1800.39 -374.764 1808.81 -358.606C1809.62 -357.046 1810.43 -355.487 1811.24 -353.929C1820.43 -336.204 1829.13 -318.513 1832.58 -299.653C1836.03 -280.773 1833.67 -262.335 1830.44 -243.883C1829.89 -240.728 1829.31 -237.571 1828.73 -234.412C1825.93 -219.121 1823.12 -203.765 1823.15 -188.17C1823.19 -170.774 1823.77 -153.429 1824.35 -136.091C1825.47 -102.701 1826.58 -69.3372 1823.81 -35.6917L1824.3 -35.6506Z" stroke="#3F3F3F"/>
<path d="M1898.3 -54.6506L1897.81 -54.6917C1896.14 -34.5336 1891.56 -16.878 1886.02 2.04738C1882.07 15.5086 1877.08 23.7142 1870.21 30.6671C1864.83 36.109 1858.3 40.7842 1850.16 46.6092C1847.86 48.2584 1845.43 49.9997 1842.86 51.8768C1815.81 71.6185 1791.81 94.6593 1771.4 121.269C1763 132.217 1756.39 144.646 1749.82 156.997C1748.98 158.564 1748.15 160.13 1747.31 161.691C1739.88 175.576 1732.22 189.119 1721.79 200.212C1708.26 214.599 1692.92 225.753 1677 229.739C1661.12 233.716 1644.62 230.572 1628.7 216.257C1625.75 213.595 1623.06 210.119 1620.38 206.359C1619.5 205.116 1618.61 203.84 1617.72 202.554C1615.93 199.968 1614.12 197.342 1612.21 194.865C1606.5 187.442 1599.86 181.132 1590.3 180.738C1584.4 180.496 1578.38 182.421 1572.3 185.467C1566.22 188.513 1560.02 192.705 1553.78 197.039C1553.07 197.535 1552.35 198.034 1551.63 198.533C1546.09 202.395 1540.51 206.284 1534.89 209.534C1528.55 213.204 1522.21 216.038 1515.89 217.095C1511.39 217.849 1506.12 218.081 1500.47 218.2C1498.89 218.233 1497.28 218.257 1495.65 218.281C1491.47 218.344 1487.16 218.409 1482.9 218.63C1471.07 219.244 1459.42 221.067 1451.49 227.533C1441.19 235.917 1437.71 249.802 1435.41 264.172C1434.93 267.132 1434.51 270.106 1434.09 273.062C1433.48 277.324 1432.88 281.548 1432.14 285.643C1430.89 292.56 1429.24 299.011 1426.54 304.43C1415.5 326.573 1396.92 335.538 1375.97 340.69C1367.39 342.8 1358.44 344.265 1349.44 345.737C1347.45 346.064 1345.45 346.39 1343.45 346.725C1332.48 348.563 1321.57 350.625 1311.42 354.094C1294.28 359.951 1270.08 368.957 1255.52 379.794C1249.09 384.585 1244.3 390.692 1239.71 396.852C1239.23 397.502 1238.75 398.153 1238.27 398.803C1234.18 404.325 1230.14 409.783 1225.09 414.366C1214.02 424.405 1200.79 430.332 1187.53 430.669C1174.29 431.005 1160.97 425.765 1149.71 413.382C1142.38 405.321 1137.81 397.425 1133.44 389.888C1131.91 387.251 1130.41 384.658 1128.82 382.118C1122.71 372.321 1115.4 363.42 1100.72 356.125C1089.39 350.496 1077.69 346.431 1066.01 342.373L1065.24 342.105C1053.29 337.955 1041.37 333.776 1029.84 327.896C1020.17 322.966 1010.23 317.262 1000.07 311.395L998.293 310.371C988.7 304.832 978.913 299.182 968.994 293.942C947.935 282.818 926.229 273.519 904.39 271.042C894.531 269.923 884.891 270.695 875.333 271.46C874.484 271.528 873.635 271.596 872.787 271.663C862.377 272.48 852.04 273.09 841.486 271.091C833.112 269.506 824.723 266.511 816.372 263.468L815.232 263.052C807.279 260.151 799.361 257.263 791.588 255.61C774.654 252.01 762.74 254.422 752.691 261.158C742.685 267.865 734.574 278.836 725.177 292.212C723.325 294.848 721.484 297.577 719.633 300.321C717.202 303.925 714.754 307.554 712.243 311.029C707.834 317.132 703.3 322.659 698.493 326.518C693.69 330.373 688.661 332.528 683.243 331.981C677.819 331.432 671.89 328.164 665.317 320.921C637.558 290.331 634.755 244.597 635.737 205.657C636.106 191.036 634.865 176.13 633.624 161.212C633.144 155.446 632.664 149.678 632.277 143.925C630.885 123.257 630.685 102.73 635.919 82.9143C638.532 73.0199 641.745 63.2738 645.008 53.5327C645.287 52.7004 645.566 51.8682 645.845 51.036C648.832 42.1313 651.821 33.2203 654.382 24.214C659.985 4.51369 663.554 -15.6837 660.607 -37.4144C656.44 -68.1432 635.247 -94.5812 610.241 -118.233C598.186 -129.636 585.223 -140.411 572.825 -150.716L571.427 -151.878C558.601 -162.541 546.448 -172.7 536.574 -182.56C512.002 -207.095 500.412 -227.915 496.67 -250.755C492.923 -273.625 497.034 -298.577 504.007 -331.428C509.688 -358.203 494.392 -375.809 479.092 -393.419L478.988 -393.539C463.609 -411.241 448.257 -428.984 453.143 -456.233C454.349 -462.967 455.752 -469.161 457.104 -475.131C460.975 -492.227 464.431 -507.493 461.698 -528.382C460.022 -541.179 456.434 -553.542 452.861 -565.85L452.358 -567.585C448.619 -580.48 444.996 -593.338 443.659 -606.67C439.167 -651.465 461.006 -702.216 493.295 -731.89C499.657 -737.737 505.715 -745.082 511.824 -752.788C512.984 -754.251 514.146 -755.727 515.312 -757.209C520.295 -763.541 525.359 -769.976 530.711 -775.94C543.921 -790.663 558.773 -802.387 578.19 -802.481C592.987 -802.553 606.023 -795.766 618.507 -789.266C619.404 -788.798 620.299 -788.332 621.192 -787.87L621.422 -788.314L621.192 -787.87C622.684 -787.099 624.553 -785.897 626.912 -784.379C628.23 -783.531 629.702 -782.584 631.347 -781.559C635.909 -778.716 641.738 -775.313 649.153 -771.866C663.984 -764.972 685.137 -757.909 715.164 -754.772C733.962 -752.809 746.235 -744.585 756.856 -733.668C762.106 -728.272 766.948 -722.223 771.98 -715.936L772.179 -715.687C777.278 -709.316 782.576 -702.712 788.673 -696.348C809.051 -675.073 834.345 -666.088 859.281 -657.229C863.049 -655.89 866.809 -654.554 870.543 -653.18C899.009 -642.698 926.026 -629.933 943.97 -596.412C951.745 -581.887 957.438 -566.544 962.714 -551.249C963.784 -548.149 964.836 -545.05 965.886 -541.961C970.01 -529.819 974.086 -517.819 978.951 -506.436C991.169 -477.849 1008.4 -453.061 1044.01 -439.314C1059.69 -433.262 1075.91 -430.325 1092.04 -427.405C1094.9 -426.888 1097.75 -426.372 1100.59 -425.839C1119.54 -422.29 1138.25 -417.998 1155.84 -407.93C1162.96 -403.854 1170 -398.042 1177.15 -391.597C1180.15 -388.89 1183.17 -386.065 1186.23 -383.212C1190.42 -379.294 1194.67 -375.325 1198.98 -371.544C1213.9 -358.464 1229.89 -347.351 1248.21 -347.484C1266.44 -347.617 1279.67 -358.513 1293.13 -369.602L1293.98 -370.297C1307.78 -381.656 1321.97 -393.021 1342.29 -393.682C1365.18 -394.425 1382.23 -397.298 1395.96 -405.658C1409.7 -414.025 1420.04 -427.841 1429.62 -450.309C1447.7 -492.679 1472.34 -507.358 1505.88 -527.339C1508.62 -528.972 1511.42 -530.64 1514.28 -532.362C1521.82 -536.9 1528.83 -541.513 1535.51 -545.911C1538.67 -547.997 1541.77 -550.033 1544.81 -551.99C1554.28 -558.083 1563.26 -563.415 1572.47 -567.109C1590.84 -574.479 1610.16 -575.348 1636.11 -562.519C1657.51 -551.941 1679.28 -549.554 1700.62 -547.213C1702.79 -546.976 1704.95 -546.739 1707.1 -546.494C1730.53 -543.831 1753.38 -540.221 1774.84 -524.877C1777.11 -523.254 1779.36 -521.651 1781.59 -520.062C1817.43 -494.578 1848.28 -472.631 1861.07 -427.248C1865.92 -410.034 1874.39 -393.764 1882.81 -377.606C1883.62 -376.046 1884.43 -374.487 1885.24 -372.929C1894.43 -355.204 1903.13 -337.513 1906.58 -318.653C1910.03 -299.773 1907.67 -281.335 1904.44 -262.883C1903.89 -259.728 1903.31 -256.571 1902.73 -253.412C1899.93 -238.121 1897.12 -222.765 1897.15 -207.17C1897.19 -189.774 1897.77 -172.429 1898.35 -155.091C1899.47 -121.701 1900.58 -88.3372 1897.81 -54.6917L1898.3 -54.6506Z" stroke="#3F3F3F"/>
<path d="M1850.3 -132.651L1849.81 -132.692C1848.14 -112.534 1843.56 -94.878 1838.01 -75.9526C1834.07 -62.4914 1829.08 -54.2858 1822.21 -47.3329C1816.83 -41.891 1810.3 -37.2158 1802.16 -31.3908C1799.86 -29.7416 1797.43 -28.0003 1794.86 -26.1232C1767.81 -6.38154 1743.81 16.6593 1723.4 43.269C1715 54.2174 1708.39 66.6463 1701.82 78.9969C1700.98 80.5639 1700.15 82.1296 1699.31 83.691C1691.88 97.5765 1684.22 111.119 1673.79 122.212C1660.26 136.599 1644.92 147.753 1629 151.739C1613.12 155.716 1596.62 152.572 1580.7 138.257C1577.74 135.595 1575.06 132.119 1572.38 128.359C1571.5 127.116 1570.61 125.84 1569.72 124.554C1567.93 121.968 1566.12 119.342 1564.21 116.865C1558.5 109.442 1551.86 103.132 1542.3 102.738C1536.4 102.496 1530.38 104.421 1524.3 107.467C1518.21 110.513 1512.02 114.705 1505.78 119.039C1505.07 119.535 1504.35 120.034 1503.63 120.533C1498.09 124.395 1492.5 128.284 1486.89 131.534C1480.55 135.204 1474.21 138.038 1467.89 139.095C1463.39 139.849 1458.12 140.081 1452.47 140.2C1450.89 140.233 1449.28 140.257 1447.65 140.281C1443.47 140.344 1439.16 140.409 1434.9 140.63C1423.07 141.244 1411.42 143.067 1403.49 149.533C1393.19 157.917 1389.71 171.802 1387.41 186.172C1386.93 189.132 1386.51 192.106 1386.09 195.062C1385.48 199.324 1384.88 203.548 1384.14 207.643C1382.88 214.56 1381.24 221.011 1378.54 226.43C1367.5 248.573 1348.92 257.538 1327.97 262.69C1319.39 264.8 1310.44 266.265 1301.44 267.737C1299.45 268.064 1297.45 268.39 1295.45 268.725C1284.48 270.563 1273.57 272.625 1263.42 276.094C1246.28 281.951 1222.08 290.957 1207.52 301.794C1201.09 306.585 1196.3 312.692 1191.71 318.852C1191.23 319.502 1190.75 320.153 1190.27 320.803C1186.18 326.325 1182.14 331.783 1177.09 336.366C1166.02 346.405 1152.79 352.332 1139.53 352.669C1126.29 353.005 1112.97 347.765 1101.71 335.382C1094.38 327.321 1089.8 319.425 1085.44 311.888C1083.91 309.251 1082.41 306.658 1080.82 304.118C1074.7 294.321 1067.4 285.42 1052.72 278.125C1041.39 272.496 1029.69 268.431 1018.01 264.373L1017.24 264.105C1005.29 259.955 993.372 255.776 981.84 249.896C972.172 244.966 962.23 239.262 952.067 233.395L950.293 232.371C940.699 226.832 930.913 221.182 920.993 215.942C899.934 204.818 878.228 195.519 856.389 193.042C846.531 191.923 836.891 192.695 827.333 193.46C826.483 193.528 825.635 193.596 824.787 193.663C814.377 194.48 804.04 195.09 793.485 193.091C785.112 191.506 776.723 188.511 768.372 185.468L767.231 185.052C759.278 182.151 751.36 179.263 743.587 177.61C726.654 174.01 714.739 176.422 704.691 183.158C694.685 189.865 686.573 200.836 677.177 214.212C675.325 216.848 673.484 219.577 671.633 222.321C669.202 225.925 666.754 229.554 664.243 233.029C659.834 239.132 655.299 244.659 650.492 248.518C645.69 252.373 640.661 254.528 635.243 253.981C629.818 253.432 623.889 250.164 617.317 242.921C589.557 212.331 586.754 166.597 587.737 127.657C588.106 113.036 586.865 98.1302 585.623 83.2117C585.143 77.4459 584.663 71.6784 584.276 65.9247C582.885 45.2573 582.684 24.7303 587.918 4.91428C590.531 -4.98006 593.745 -14.7262 597.008 -24.4673C597.286 -25.2996 597.566 -26.1318 597.845 -26.964C600.831 -35.8687 603.82 -44.7797 606.381 -53.786C611.984 -73.4863 615.554 -93.6837 612.607 -115.414C608.439 -146.143 587.246 -172.581 562.241 -196.233C550.186 -207.636 537.223 -218.411 524.824 -228.716L523.426 -229.878C510.601 -240.541 498.447 -250.7 488.574 -260.56C464.002 -285.095 452.411 -305.915 448.669 -328.755C444.923 -351.625 449.033 -376.577 456.006 -409.428C461.687 -436.203 446.392 -453.809 431.092 -471.419L430.988 -471.539C415.609 -489.241 400.256 -506.984 405.142 -534.233C406.349 -540.967 407.751 -547.161 409.103 -553.131C412.974 -570.227 416.431 -585.493 413.697 -606.382C412.022 -619.179 408.433 -631.542 404.861 -643.85L404.357 -645.585C400.619 -658.48 396.996 -671.338 395.659 -684.67C391.166 -729.465 413.006 -780.216 445.295 -809.89C451.656 -815.737 457.715 -823.082 463.824 -830.788C464.983 -832.251 466.145 -833.727 467.311 -835.209C472.295 -841.541 477.359 -847.976 482.71 -853.94C495.921 -868.663 510.773 -880.387 530.19 -880.481C544.987 -880.553 558.022 -873.766 570.506 -867.266C571.404 -866.798 572.299 -866.332 573.192 -865.87L573.421 -866.314L573.192 -865.87C574.684 -865.099 576.553 -863.897 578.911 -862.379C580.23 -861.531 581.702 -860.584 583.347 -859.559C587.909 -856.716 593.738 -853.313 601.152 -849.866C615.983 -842.972 637.136 -835.909 667.163 -832.772C685.961 -830.809 698.235 -822.585 708.856 -811.668C714.106 -806.272 718.947 -800.223 723.979 -793.936L724.179 -793.687C729.277 -787.316 734.576 -780.712 740.672 -774.348C761.051 -753.073 786.345 -744.088 811.281 -735.229C815.049 -733.89 818.809 -732.554 822.543 -731.18C851.009 -720.698 878.026 -707.933 895.969 -674.412C903.744 -659.887 909.437 -644.544 914.714 -629.249C915.783 -626.149 916.836 -623.05 917.885 -619.961C922.01 -607.819 926.086 -595.819 930.951 -584.436C943.168 -555.849 960.397 -531.061 996.012 -517.314C1011.69 -511.262 1027.91 -508.325 1044.04 -505.405C1046.9 -504.888 1049.75 -504.372 1052.59 -503.839C1071.54 -500.29 1090.25 -495.998 1107.84 -485.93C1114.96 -481.854 1122 -476.042 1129.15 -469.597C1132.15 -466.89 1135.17 -464.065 1138.22 -461.212C1142.42 -457.294 1146.67 -453.325 1150.98 -449.544C1165.9 -436.464 1181.89 -425.351 1200.21 -425.484C1218.44 -425.617 1231.67 -436.513 1245.13 -447.602L1245.98 -448.297C1259.78 -459.656 1273.97 -471.021 1294.29 -471.682C1317.18 -472.425 1334.23 -475.298 1347.96 -483.658C1361.7 -492.025 1372.04 -505.841 1381.62 -528.309C1399.7 -570.679 1424.34 -585.358 1457.88 -605.339C1460.62 -606.972 1463.42 -608.64 1466.28 -610.362C1473.82 -614.9 1480.82 -619.513 1487.51 -623.911C1490.67 -625.997 1493.77 -628.033 1496.81 -629.99C1506.28 -636.083 1515.26 -641.415 1524.47 -645.109C1542.84 -652.479 1562.16 -653.348 1588.11 -640.519C1609.51 -629.941 1631.28 -627.554 1652.62 -625.213C1654.79 -624.976 1656.95 -624.739 1659.1 -624.494C1682.53 -621.831 1705.38 -618.221 1726.84 -602.877C1729.11 -601.254 1731.36 -599.651 1733.59 -598.062C1769.43 -572.578 1800.28 -550.631 1813.07 -505.248C1817.92 -488.034 1826.39 -471.764 1834.81 -455.606C1835.62 -454.046 1836.43 -452.487 1837.24 -450.929C1846.43 -433.204 1855.13 -415.513 1858.58 -396.653C1862.03 -377.773 1859.67 -359.335 1856.44 -340.883C1855.89 -337.728 1855.31 -334.571 1854.73 -331.412C1851.93 -316.121 1849.12 -300.765 1849.15 -285.17C1849.19 -267.774 1849.77 -250.429 1850.35 -233.091C1851.47 -199.701 1852.58 -166.337 1849.81 -132.692L1850.3 -132.651Z" stroke="#3F3F3F"/>
</svg>
