<svg width="30" height="30" viewBox="0 0 30 30" fill="none" xmlns="http://www.w3.org/2000/svg">
<path d="M24.6 2.40002H5.40002C3.74582 2.40002 2.40002 3.74582 2.40002 5.40002V24.6C2.40002 26.2542 3.74582 27.6 5.40002 27.6H24.6C26.2542 27.6 27.6 26.2542 27.6 24.6V5.40002C27.6 3.74582 26.2542 2.40002 24.6 2.40002ZM22.2036 13.3938C22.0674 13.4064 21.9294 13.4148 21.7896 13.4148C20.2158 13.4148 18.8328 12.6054 18.0282 11.382C18.0282 14.5914 18.0282 18.243 18.0282 18.3042C18.0282 21.1296 15.7374 23.4204 12.912 23.4204C10.0866 23.4204 7.79582 21.1296 7.79582 18.3042C7.79582 15.4788 10.0866 13.188 12.912 13.188C13.0188 13.188 13.1232 13.1976 13.2282 13.2042V15.7254C13.1232 15.7128 13.02 15.6936 12.912 15.6936C11.4696 15.6936 10.3008 16.8624 10.3008 18.3048C10.3008 19.7472 11.4696 20.916 12.912 20.916C14.3544 20.916 15.6282 19.7796 15.6282 18.3372C15.6282 18.2802 15.6534 6.58082 15.6534 6.58082H18.063C18.2898 8.73542 20.0292 10.4358 22.2036 10.5918V13.3938Z" fill="#282828"/>
</svg>
