<svg width="790" height="450" viewBox="0 0 790 450" fill="none" xmlns="http://www.w3.org/2000/svg">
<path d="M21.3778 251.752C40.2553 271.447 84.0544 274.057 96.9406 294.667C107.303 311.334 91.0561 331.903 88.7719 348.722C82.7547 393.641 117.181 414.118 158.257 420.505C190.027 425.511 223.638 414.987 256.134 416.792C291.291 418.753 325.425 425.886 358.525 437.654C387 447.742 399.451 454.723 427.66 445.52C447.367 439.123 465.391 432.635 483.926 422.121C490.399 418.408 496.781 414.612 503.037 410.655C498.639 403.737 490.999 397.2 486.606 394.582C474.749 387.601 458.965 386.222 447.651 378.402C436.683 370.804 448.468 354.904 445.697 342.756C442.097 327.298 420.767 318.707 410.499 299.36C407.529 293.756 413.785 286.262 414.334 279.539C414.723 275.117 413.855 271.734 412.231 268.89C418.313 261.584 425.158 254.681 430.828 247.963C445.761 230.412 468.313 215.33 487.993 203.329C501.998 194.749 517.407 189.127 529.671 177.904C533.666 174.213 541.65 167.244 546.124 160.395C555.413 175.144 562.607 191.391 567.105 208.182C569.092 215.494 569.816 223.082 569.239 230.681C569.091 232.343 568.576 234.841 567.96 237.488C565.093 237.629 562.073 238.075 558.997 239.099C548.938 242.384 544.504 247.946 539.221 256.314C532.391 267.284 528.148 269.249 515.605 268.665C499.864 267.943 483.613 286.162 490.743 301.616C493.76 308.236 499.963 312.87 502.222 319.855C505.713 330.389 499.765 333.32 496.433 341.86C491.868 353.331 499.454 366.691 507.447 374.398C513.931 380.649 522.01 387.083 530.891 392.224C559.546 372.316 587.014 350.87 615.796 331.117C641.748 313.34 673.166 305.218 699.385 288.115C697.357 284.086 694.621 280.438 691.624 277.887C684.407 271.712 675.83 274.793 667.936 271.654C663.623 269.944 662.901 266.073 659.337 262.239C655.283 257.898 651.33 256.945 645.509 256.903C639.332 256.871 634.883 259.542 628.968 260.596C621.226 261.863 614.24 259.239 608 255.119C602.447 251.448 596.776 247.388 590.878 244.083C591.673 238.311 591.891 232.484 592.074 229.714C594.751 190.215 569.322 168.607 551.678 136.972C544.29 123.734 536.543 109.324 534.89 93.8638C533.101 77.4786 538.095 60.6515 543.482 45.4762C543.864 44.41 544.345 43.2003 544.826 41.9907C577.128 33.6646 611.002 27.3445 641.303 21.9543C690.982 13.0179 729.162 -13.106 771.973 -39.5452C777.826 -43.1476 783.795 -46.9501 789.589 -50.9291C780.719 -67.8527 772.606 -85.5503 769.682 -106.407C766.299 -130.815 757.669 -146.195 745.289 -157.34C727.051 -108.79 694.845 -69.6174 652.261 -35.0901C618.004 -7.31762 571.385 3.7806 530.055 18.6445C481.8 35.9666 429.642 52.1714 379.496 61.6783C329.277 71.2192 280.855 66.163 233.18 86.658C202.012 100.036 171.983 136.858 171.669 173.591C167.038 172.138 162.282 169.948 157.724 169.816C147.455 169.501 135.475 173.501 129.035 181.997C122.627 190.386 123.245 197.936 110.74 198.006C101.357 198.075 92.9671 192.079 83.3183 193.422C64.427 196.113 65.8161 222.284 46.1453 219.731C26.3668 217.147 17.4126 210.685 0.499935 224.049C8.06834 233.909 14.6917 244.797 21.3778 251.752ZM348.365 146.825C361.613 129.182 379.568 114.716 395.631 99.8601C401.763 94.1586 408.751 89.308 415.472 84.1977C441.343 78.0639 466.69 68.1804 491.146 58.7339C495.135 57.2239 499.2 55.8484 503.331 54.4429C502.939 66.5249 505.531 80.443 508.358 90.2458C512.27 104.091 518.481 116.74 525.709 128.929C522.506 144.878 512.98 158.748 499.27 168.714C471.637 188.757 442.127 204.637 416.158 227.183C410.486 232.138 403.979 238.901 398.169 246.289C403.413 233.544 394.144 224.984 383.199 215.747C388.25 200.706 383.351 189.569 373.199 177.096C366.957 169.446 359.743 164.453 349.997 162.582C345.979 161.845 341.366 162.697 336.944 163.489C340.468 157.827 344.23 152.36 348.365 146.825ZM218.385 140.182C236.685 115.926 267.63 100.947 296.681 93.0538C316.296 87.7487 336.049 88.854 355.82 89.4886C352.84 94.3067 350.606 100.178 348.029 104.826C339.574 119.846 329.681 135.313 319.371 149.244C318.394 150.54 316.637 152.665 314.659 155.137C314.385 154.876 314.053 154.603 313.779 154.341C303.071 145.881 289.719 142.104 276.234 144.243C268.684 145.449 265.234 147.535 259.195 152.145C257.419 153.553 253.454 158.317 251.037 158.71C244.788 159.72 233.176 150.339 225.041 149.193C220.13 148.484 215.855 148.789 211.895 150.017C213.902 146.669 216.015 143.359 218.385 140.182Z" fill="#E9E3DC"/>
</svg>
