<svg width="573" height="283" viewBox="0 0 573 283" fill="none" xmlns="http://www.w3.org/2000/svg">
<path d="M47.28 121.2C21.96 121.2 4.56 100.32 4.56 77.16C4.56 52.32 21.72 33.6 46.44 33.6C71.04 33.6 88.08 53.88 88.08 77.88C88.08 101.52 70.44 121.2 47.28 121.2ZM49.92 116.04C66 116.04 77.28 101.28 77.28 85.08C77.28 59.64 63.24 38.76 42.72 38.76C26.52 38.76 15.36 52.2 15.36 69.84C15.36 94.56 29.4 116.04 49.92 116.04ZM125.935 61.2C140.575 61.2 153.535 72.6 153.535 90.36C153.535 108.12 141.175 121.2 126.055 121.2C118.615 121.2 112.495 118.08 108.295 112.92V138.72C108.295 143.16 112.975 143.16 112.975 145.44V145.8C112.975 146.88 112.015 147.36 110.575 147.36H95.8153C94.3753 147.36 93.2953 146.88 93.2953 145.8V145.44C93.2953 143.16 97.7353 143.16 97.7353 138.72V75.12C97.7353 70.92 92.9353 70.8 92.9353 68.4V68.04C92.9353 67.08 93.6553 66.36 94.8553 65.88L103.495 61.68C105.895 60.6 106.855 61.56 106.855 63.36L106.735 71.28C110.335 65.16 117.535 61.2 125.935 61.2ZM124.615 117.36C135.655 117.36 142.855 108 142.855 93.24C142.855 76.68 134.935 65.04 123.295 65.04C115.855 65.04 109.255 71.04 108.295 78.36V98.88C108.295 108.48 116.215 117.36 124.615 117.36ZM206.967 103.08C208.047 101.4 210.807 101.76 210.447 104.04C209.007 111.24 201.087 121.2 186.087 121.2C170.607 121.2 158.247 109.44 158.247 90.72C158.247 73.8 170.607 61.2 186.567 61.2C200.967 61.2 208.887 70.68 208.887 78.96C208.887 82.8 206.847 84.84 203.247 86.04L170.007 96.96C172.767 107.28 180.087 113.52 189.807 113.52C198.687 113.52 204.327 108.84 206.967 103.08ZM184.767 65.04C175.047 65.04 168.687 74.64 168.687 86.88C168.687 89.04 168.807 91.08 169.167 93L195.927 83.4C197.967 82.56 198.807 81.24 198.807 79.2C198.807 73.8 193.047 65.04 184.767 65.04ZM271.661 111.36C271.901 115.8 275.981 115.8 275.981 118.08V118.56C275.981 119.52 275.021 120.12 273.461 120.12H259.181C257.621 120.12 256.661 119.52 256.661 118.56V118.08C256.661 115.8 261.221 115.8 260.981 111.48L259.781 87.48C259.181 72.84 253.301 65.88 245.021 65.88C236.141 65.88 230.021 72.96 230.021 82.44V111.6C230.021 115.8 234.821 115.8 234.821 118.08V118.56C234.821 119.52 233.861 120.12 232.301 120.12H217.301C215.861 120.12 214.901 119.52 214.901 118.56V118.08C214.901 115.8 219.581 115.8 219.581 111.6V75.24C219.581 70.08 214.541 70.32 214.541 68.16V67.8C214.541 66.96 215.261 66.48 216.461 66L225.461 61.68C227.741 60.48 228.821 61.68 228.821 63.48V72.24C232.301 65.52 239.261 61.2 247.541 61.2C259.301 61.2 269.141 69.12 270.341 87.72L271.661 111.36ZM289.688 51C284.768 51 281.648 48 281.648 43.56C281.648 39.12 284.768 36 289.688 36C294.368 36 297.488 39.12 297.488 43.56C297.488 48 294.368 51 289.688 51ZM282.728 120C281.288 120 280.448 119.4 280.448 118.44V117.96C280.448 115.68 284.768 115.68 284.768 111.48V75.72C284.768 71.04 280.448 70.08 280.448 68.28V68.04C280.448 67.2 281.168 66.84 282.248 66.24L291.488 61.68C294.008 60.48 295.208 61.68 295.208 63.36V111.48C295.208 115.68 300.008 115.68 300.008 117.96V118.44C300.008 119.4 298.928 120 297.488 120H282.728ZM362.547 111.36C362.787 115.8 366.867 115.8 366.867 118.08V118.56C366.867 119.52 365.907 120.12 364.347 120.12H350.067C348.507 120.12 347.547 119.52 347.547 118.56V118.08C347.547 115.8 352.107 115.8 351.867 111.48L350.667 87.48C350.067 72.84 344.187 65.88 335.907 65.88C327.027 65.88 320.907 72.96 320.907 82.44V111.6C320.907 115.8 325.707 115.8 325.707 118.08V118.56C325.707 119.52 324.747 120.12 323.187 120.12H308.187C306.747 120.12 305.787 119.52 305.787 118.56V118.08C305.787 115.8 310.467 115.8 310.467 111.6V75.24C310.467 70.08 305.427 70.32 305.427 68.16V67.8C305.427 66.96 306.147 66.48 307.347 66L316.347 61.68C318.627 60.48 319.707 61.68 319.707 63.48V72.24C323.187 65.52 330.147 61.2 338.427 61.2C350.187 61.2 360.027 69.12 361.227 87.72L362.547 111.36ZM421.853 62.4C425.933 62.4 426.653 64.2 425.213 65.4C423.053 67.68 418.973 67.2 415.373 68.16C420.533 72 423.773 78.6 423.773 84.72C423.773 94.68 418.253 102.48 409.373 106.32C419.813 108.6 424.973 114.36 424.973 121.44C424.973 132.6 413.333 139.44 397.133 139.44C378.653 139.44 369.773 128.88 369.773 121.2C369.773 118.8 371.093 116.64 374.213 116.64C381.653 116.64 377.813 135.48 397.853 135.6C407.693 135.6 414.293 130.2 414.293 122.16C414.293 114.48 409.133 109.2 400.973 108.48C399.413 108.6 397.973 108.72 396.413 108.72C382.013 108.72 370.733 98.4 370.733 85.44C370.733 71.4 381.293 61.2 397.253 61.2C405.413 61.2 406.733 62.4 421.853 62.4ZM398.333 104.76C407.573 104.76 413.333 97.68 413.333 88.44C413.333 75.96 406.013 65.04 395.333 65.04C386.693 65.04 381.173 72 381.173 81.12C381.173 93.96 388.613 104.76 398.333 104.76Z" fill="#F4EFE9"/>
<path d="M114.8 163.2C114.8 158.88 110.36 158.76 110.36 156.48V156.24C110.36 155.28 111.32 154.8 112.88 154.8H128C129.44 154.8 130.28 155.28 130.28 156.24V156.48C130.28 158.76 125.72 158.88 125.72 163.2L125.6 209.4C125.48 233.04 114.68 241.08 100.16 241.2C81.92 241.32 75.2 229.08 75.2 221.88C75.2 218.52 77.24 216.36 80.36 216.36C90.08 216.36 83.84 236.28 101.12 236.28C108.68 236.28 114.8 228.96 114.8 214.44V163.2ZM190.009 229.68C190.009 238.44 196.729 234.72 196.729 238.2C196.729 240.24 194.329 240.72 189.289 240.72C183.889 240.72 180.289 238.56 180.529 231.84L180.289 231.12C176.809 237.48 170.329 241.2 161.809 241.2C148.729 241.2 139.609 231.6 139.609 213.84V192.6C139.609 188.04 135.169 187.68 135.169 185.64V185.28C135.169 184.44 135.889 183.72 136.969 183.48L147.049 181.68C149.089 181.32 150.289 181.56 150.289 183.12L150.169 214.68C150.169 228.6 155.209 236.52 164.329 236.52C172.849 236.52 179.569 229.32 179.569 218.28V192.6C179.569 188.04 174.889 187.8 174.889 185.64V185.28C174.889 184.44 175.489 183.72 176.689 183.48L186.889 181.68C188.929 181.32 190.009 181.56 190.009 183.12V229.68ZM202.781 240C201.341 240 200.501 239.4 200.501 238.44V238.08C200.501 235.68 204.701 235.8 204.701 231.6V164.16C204.701 159.48 200.501 158.76 200.501 156.96V156.72C200.501 155.76 201.101 155.4 202.181 154.8L211.541 150.24C213.941 149.04 215.261 150.36 215.261 151.92V231.6C215.261 235.8 219.941 235.68 219.941 238.08V238.44C219.941 239.4 218.981 240 217.541 240H202.781ZM281.54 182.4C282.5 182.4 283.22 182.88 283.22 183.84V184.2C283.22 186.6 280.1 186.48 277.82 191.64L255.14 241.68C250.46 252.24 244.94 265.44 233.18 265.44C224.18 265.44 218.42 259.44 218.42 254.76C218.42 252 220.1 249.96 222.98 249.96C229.22 249.96 227.54 261.24 234.98 261.24C240.14 261.24 245.42 252.84 249.62 242.28L226.58 191.52C224.18 186.48 220.82 186.6 220.82 184.2V183.84C220.82 182.88 221.66 182.4 222.62 182.4H238.22C239.18 182.4 239.9 183 239.9 183.84V184.2C239.9 186.6 235.58 186.48 237.86 191.64L255.14 232.32L272.3 192.6C274.94 186.48 267.74 186.6 267.74 184.2V183.84C267.74 183 268.46 182.4 269.54 182.4H281.54ZM363.456 221.76C364.656 221.76 365.496 222.6 365.136 224.04L361.776 237.48C361.296 238.92 360.336 240 358.896 240H306.816C305.496 240 304.536 239.16 304.536 237.84V236.88C304.536 212.52 349.296 197.88 349.296 175.2C349.296 164.64 341.496 158.52 334.176 158.52C317.016 158.52 319.056 178.8 311.136 178.8C307.896 178.8 305.496 176.88 305.496 173.4C305.496 165.6 315.816 153.6 333.576 153.6C348.696 153.6 360.096 161.28 360.096 176.04C360.096 201.24 317.136 212.04 313.656 232.2H351.936C359.016 232.2 359.616 221.76 362.616 221.76H363.456ZM405.376 241.2C385.336 241.2 370.336 224.28 370.336 196.92C370.336 170.04 383.056 153.6 404.536 153.6C424.096 153.6 438.856 171.36 438.856 197.52C438.856 225 424.696 241.2 405.376 241.2ZM406.936 236.4C419.056 236.4 428.176 223.8 428.176 202.32C428.176 178.2 417.616 158.52 402.616 158.52C390.016 158.52 381.016 171.24 381.016 192.96C381.016 217.8 391.696 236.4 406.936 236.4ZM503.561 221.76C504.761 221.76 505.601 222.6 505.241 224.04L501.881 237.48C501.401 238.92 500.441 240 499.001 240H446.921C445.601 240 444.641 239.16 444.641 237.84V236.88C444.641 212.52 489.401 197.88 489.401 175.2C489.401 164.64 481.601 158.52 474.281 158.52C457.121 158.52 459.161 178.8 451.241 178.8C448.001 178.8 445.601 176.88 445.601 173.4C445.601 165.6 455.921 153.6 473.681 153.6C488.801 153.6 500.201 161.28 500.201 176.04C500.201 201.24 457.241 212.04 453.761 232.2H492.041C499.121 232.2 499.721 221.76 502.721 221.76H503.561ZM568.161 214.44C569.121 214.44 569.841 215.04 569.841 216V218.16C569.841 219.12 569.121 219.72 568.161 219.72H558.321V231.36C558.321 236.28 563.361 236.04 563.361 238.32V238.56C563.361 239.52 562.641 240 561.201 240H544.881C543.321 240 542.601 239.52 542.601 238.56V238.32C542.601 236.04 547.401 236.28 547.401 231.36V219.72H509.121C507.201 219.72 506.001 218.76 506.001 217.08V216.72C506.001 215.16 506.241 214.08 507.081 212.76L545.121 158.16C546.561 155.88 548.001 154.8 550.401 154.8H556.281C557.601 154.8 558.321 155.64 558.321 156.96V214.44H568.161ZM512.601 214.44H547.401L547.521 164.16L512.601 214.44Z" fill="#F4EFE9"/>
</svg>
